<svg xmlns="http://www.w3.org/2000/svg" viewBox="0 0 1920 1200" preserveAspectRatio="xMidYMid meet">

	  <polygon points="406 126,408 170,409 239,426 239,424 281,411 285,410 369,297 372,297 314,347 312,346 277,374 278,373 241,354 245,347 204,268 207,271 373,167 372,164 172,163 123"></polygon>

	  <polygon points="763 377,832 376,836 480,764 480"></polygon>

	  <polygon points="1225 209,1864 206,1866 264,1846 355,1779 355,1783 322,1673 326,1661 358,1570 356,1567 321,1447 323,1445 354,1359 354,1361 324,1216 322"></polygon>

	  <polygon points="1362 378,1461 378,1456 418,1625 413,1633 458,1620 516,1299 513,1284 418,1364 422"></polygon>

	  <polygon points="1447 684,1461 805,1176 801,1172 680"></polygon>

	  <polygon points="1859 681,1851 786,1548 786,1533 673"></polygon>

	  <polygon points="1362 378,1461 378,1456 418,1625 413,1633 458,1620 516,1299 513,1284 418,1364 422"></polygon>
	
	  <polygon points="1627 890,1608 979,923 954,914 1057,841 1057,857 954,584 944,605 844,750 853,750 816,810 823,823 853,952 862,948 832,1014 836,1020 866,1137 871,1152 846,1218 848,1225 876,1469 882,1460 867,1547 869,1569 888"></polygon>

	  <polygon points="1855 892,1861 1105,1761 1108,1762 969,1728 969,1728 1002,1694 1000,1695 971,1632 970,1649 881"></polygon>

	  <polygon points="408 959,607 968,605 1025,413 1024"></polygon>

	  <polygon points="1085 1067,1491 1061,1493 1092,1512 1091,1510 1122,1098 1127"></polygon>

	  <polygon points="1531 1099,1550 1066,1586 1066,1601 1098,1588 1127,1548 1128"></polygon>
	  
	</svg>