<svg xmlns="http://www.w3.org/2000/svg" viewBox="0 0 1920 1200">
	<path transform="scale(1.5)" fill="#575656" d="M0 0h1920v1200H0z"/>
	<path transform="scale(1.5)" fill="#009EE3" d="M1125 687V556c-28 0-91 17-106 26s-561 16-561 16l-48 70s584-10 597-9 58 22 118 28M1286 371h59l63 1 5 2h-3v15h8v8h-4v6l-2 1h-67v18h-62c-2 0-4 0-4-5v-41c1-3 4-5 7-5M381 669C279 681 88 719 0 785V605l432-2-51 66z M1167 589h291v61h-291zM1473 593h368v56h-368z M1461 873s1-23 4-25l98-11c3 1 2 29 2 29l7 1-1-7h97v-23h69s7 0 6 3v29l80 1v13l-105-1v-22h-26v22l-131-3v-19h-15v16l-54-1v-3h3v-14h-10v14h3v2l-27-1z M1435 379h410v5h-410z"/>
</svg>