<svg id="Layer_1" data-name="Layer 1" xmlns="http://www.w3.org/2000/svg" viewBox="0 0 947.25 499.53">
  <defs>
    <style>
      .cls-1 {
        fill: #809778;
      }

      .cls-2 {
        fill: #5c7782;
      }

      .cls-3 {
        fill: #5b7954;
      }

      .cls-4 {
        fill: #297770;
      }

      .cls-5 {
        fill: #e1b93c;
      }

      .cls-6 {
        fill: #9d6f43;
      }

      .cls-7 {
        fill: #c2c76c;
      }

      .cls-8 {
        fill: #ffca5f;
      }

      .cls-9 {
        fill: #bb5327;
      }

      .cls-10 {
        fill: #bb844c;
      }

      .cls-11 {
        fill: #00bbd6;
      }
    </style>
  </defs>
  <title>maket</title>
  <polygon class="cls-1" points="589.51 50.17 866.4 50.17 866.4 48.83 897.68 48.83 897.68 118.08 865.45 118.08 865.45 102.64 806.34 102.64 806.34 120 760.96 120 760.96 102.57 701.34 102.57 701.34 119.17 656.85 119.17 656.85 102.57 589.51 102.57 589.51 50.17"/>
  <polygon class="cls-2" points="597.75 147.57 629.28 147.57 629.28 130.98 663.75 130.98 663.75 128.43 677.28 128.43 677.28 147.57 760.13 147.57 760.13 194.94 597.75 194.94 597.75 147.57"/>
  <rect class="cls-3" x="572.34" y="273.06" width="137.11" height="62.17"/>
  <rect class="cls-4" x="754.77" y="273.96" width="145.79" height="54.38"/>
  <rect class="cls-5" x="226.64" y="419.49" width="92.43" height="31.15"/>
  <polygon class="cls-6" points="532.77 466.34 727.83 466.34 727.83 483.57 738.43 483.57 738.43 499.53 532.77 499.53 532.77 466.34"/>
  <polygon class="cls-7" points="767.02 480.38 773.02 470.94 786.3 470.94 792.3 481.02 792.3 485.75 788.47 491.87 785.02 491.87 785.02 493.15 774.04 493.15 767.02 480.38"/>
  <polygon class="cls-8" points="810.17 376.85 926.6 376.85 926.6 493.79 878.25 493.79 878.25 466.04 875.19 466.04 875.19 423.66 860.89 423.66 860.89 438.98 843.53 438.98 843.53 424 810.17 424 810.17 376.85"/>
  <polygon class="cls-9" points="317.92 360.51 386.34 362.72 386.34 350.98 421.06 350.98 421.06 364.43 484.72 365.79 484.72 353.87 519.11 354.04 519.11 366.81 583.11 368 583.11 355.92 617.49 356.6 617.49 369.87 735.96 372.43 735.96 364.25 780.72 364.77 780.72 373.79 807.45 373.79 806.43 422.81 473.63 413.79 472.3 465.19 437.4 465.19 438.77 411.92 317.92 410.38 317.92 360.51"/>
  <polygon class="cls-10" points="224.98 53.11 224.98 0 103.45 0 103.45 123.57 156.21 123.57 156.21 40.17 192.81 40.17 192.81 57.7 205.91 57.7 205.91 75.4 192.64 75.4 192.64 91.57 167.02 91.57 167.02 123.57 225.49 123.57 225.49 78.13 230.6 78.13 230.6 53.11 224.98 53.11"/>
  <polygon class="cls-11" points="103.45 301.15 197.4 260.94 947.25 260.94 947.25 207.32 93.23 207.32 28.89 216.99 0 249.12 0 316.4 35.02 304.15 103.45 301.15"/>
</svg>
