<svg id="Layer_1" data-name="Layer 1" xmlns="http://www.w3.org/2000/svg" viewBox="0 0 580.77 69.03">
  <defs>
    <style>
      .cls-1 {
        fill: #c5c6c6;
      }

      .cls-1, .cls-3 {
        fill-rule: evenodd;
      }

      .cls-2, .cls-3 {
        fill: #575656;
      }
    </style>
  </defs>
  <title>play-button-single</title>
  <path class="cls-1" d="M7.36,0H573.41a7.38,7.38,0,0,1,7.36,7.36V61.67A7.38,7.38,0,0,1,573.41,69H7.36A7.38,7.38,0,0,1,0,61.67V7.36A7.38,7.38,0,0,1,7.36,0"/>
  <path class="cls-2" d="M441.51,51.63H422.12V17.36h19.39v4.73H427.73V31.4h12.89v4.7H427.71V46.86h13.78Zm-46.43-4.8H407.4V17.36h5.68V51.63h-41.6V17.36h5.6V46.83H389.4V17.36h5.68Zm-48.72.09h4.7a10.67,10.67,0,0,0,5.8-1.32,4.75,4.75,0,0,0,2-4.28,4.51,4.51,0,0,0-1.94-4c-1.3-.86-3.46-1.29-6.51-1.29h-4.07Zm18.27-5.61A9.22,9.22,0,0,1,361.24,49q-3.39,2.68-9.8,2.64H340.75V17.36h5.61V31.28h4.84q6.53,0,10,2.59a8.74,8.74,0,0,1,3.42,7.44ZM331.7,51.63h-5.61V22.16h-9.74q-1.85,15-3,20.41c-.77,3.61-1.79,6.12-3.13,7.54a6.85,6.85,0,0,1-5.34,2,9.36,9.36,0,0,1-3.27-.59V46.92a6.53,6.53,0,0,0,2.61.58,2.91,2.91,0,0,0,2.63-2q.94-2,2.09-9t2.7-19.15h20ZM272.48,34.44c0,4.22.84,7.42,2.55,9.6s4.22,3.27,7.57,3.27,5.84-1.08,7.53-3.23,2.54-5.37,2.54-9.64-.84-7.38-2.52-9.56-4.18-3.25-7.51-3.25-5.89,1.09-7.6,3.25S272.48,30.24,272.48,34.44Zm26.15,0q0,8.39-4.19,13c-2.79,3.08-6.74,4.64-11.84,4.64s-9.15-1.54-11.92-4.61-4.16-7.43-4.16-13.09,1.4-10,4.18-13,6.77-4.54,11.94-4.54,9,1.53,11.81,4.61,4.17,7.41,4.17,13ZM243.81,46.91h4c2.68,0,4.66-.44,5.91-1.32a4.87,4.87,0,0,0,1.87-4.28,4.52,4.52,0,0,0-1.89-4.08c-1.25-.84-3.45-1.26-6.57-1.26h-3.35Zm17.58-5.61q0,10.32-13.22,10.32h-10V17.35h20.92v4.8H243.78v9.12h4.07q13.53,0,13.54,10Zm-59-26.69c-3.31,0-5.73-.6-7.28-1.79s-2.39-3.19-2.56-6h5a6.84,6.84,0,0,0,.65,2.63,2.91,2.91,0,0,0,1.45,1.34,7.68,7.68,0,0,0,2.89.41,5.27,5.27,0,0,0,3.5-1,4.93,4.93,0,0,0,1.44-3.36h5.14a7.8,7.8,0,0,1-2.84,5.91c-1.68,1.25-4.14,1.88-7.38,1.87Zm-14.68,2.74h5.13V35.16c0,1.86-.05,3.74-.14,5.64s-.16,3.19-.21,3.86h.21l17.51-27.31h6.54V51.62h-5.13V34c0-2.71.15-6,.44-9.85h-.18L194.3,51.62h-6.56ZM172.33,37.27l-3.21-9.33c-.24-.63-.56-1.61-1-3s-.7-2.33-.86-3a53,53,0,0,1-1.85,6.31l-3.09,8.93Zm4.9,14.35-3.43-9.51H160.72l-3.36,9.51h-5.9L164.28,17.2h6.09l12.82,34.42Zm-30.28,0h-5.63V36.16H125.53V51.62h-5.61V17.35h5.61v14h15.79v-14H147ZM112.19,25.37a7.33,7.33,0,0,1-2.2,5.49,11,11,0,0,1-6.14,2.72v.13a12.15,12.15,0,0,1,6.86,2.67,7.1,7.1,0,0,1,2.36,5.54,8.71,8.71,0,0,1-3.74,7.48c-2.5,1.8-5.93,2.7-10.33,2.7q-6.84,0-11-1.86v-4.9A22.88,22.88,0,0,0,93.15,47a25.69,25.69,0,0,0,5.17.59q9,0,9-5.91a4.48,4.48,0,0,0-2.71-4.14c-1.8-.95-4.47-1.42-8-1.43H92.48V31.6h3.87q10.25,0,10.25-5.46a4.05,4.05,0,0,0-1.75-3.45A8.27,8.27,0,0,0,100,21.43a16.82,16.82,0,0,0-4.73.65,17.6,17.6,0,0,0-4.67,2.23L88,20.51a21.39,21.39,0,0,1,12.43-3.64c3.63,0,6.49.77,8.6,2.32a7.25,7.25,0,0,1,3.17,6.19Zm-26.26-8L75.13,41.75a29.39,29.39,0,0,1-3.65,6.49,10.34,10.34,0,0,1-3.86,2.94,13.34,13.34,0,0,1-5.3.94,16.93,16.93,0,0,1-5-.71v-5a12.75,12.75,0,0,0,4.8.91,5.87,5.87,0,0,0,3.57-1,9.06,9.06,0,0,0,2.62-3.75L55.62,17.36h6L70,34.55a32.06,32.06,0,0,1,1.39,3.25h.23a15,15,0,0,1,.7-1.94L80,17.36Z"/>
  <path class="cls-3" d="M502.26,11.66A22.86,22.86,0,1,1,479.4,34.52a22.86,22.86,0,0,1,22.86-22.86h0"/>
  <path class="cls-2" d="M523.7,34.52a21.44,21.44,0,1,0-6.28,15.16,21.44,21.44,0,0,0,6.28-15.16M502.26,10.24A24.27,24.27,0,1,1,478,34.52a24.28,24.28,0,0,1,24.28-24.28Z"/>
  <polygon class="cls-1" points="492.72 20.24 505.08 27.38 517.44 34.52 505.08 41.65 492.72 48.79 492.72 34.52 492.72 20.24"/>
</svg>
