<?xml version="1.0" encoding="utf-8"?>
<!-- Generator: Adobe Illustrator 24.0.1, SVG Export Plug-In . SVG Version: 6.00 Build 0)  -->
<svg version="1.1" id="Layer_1" xmlns="http://www.w3.org/2000/svg" xmlns:xlink="http://www.w3.org/1999/xlink" x="0px" y="0px"
	 viewBox="0 0 1920 1200" enable-background="new 0 0 1920 1200" xml:space="preserve">
<title>УФ-печать 1400х900 мм на пластике (1)</title>
<path fill-rule="evenodd" clip-rule="evenodd" fill="#C5C6C6" d="M1605.6,1142h273.9c2,0,3.6,1.6,3.6,3.5v25.5
	c0,1.9-1.6,3.5-3.6,3.5h-273.9c-2,0-3.6-1.6-3.6-3.5v-25.5C1602.1,1143.6,1603.7,1142,1605.6,1142"/>
<path fill="#575656" d="M1815.7,1166.3h-9.4v-16.1h9.4v2.2h-6.7v4.4h6.2v2.2h-6.2v5.1h6.7L1815.7,1166.3z M1793.2,1164h6v-13.9h2.7
	v16.1h-20.1v-16.1h2.7v13.9h6v-13.9h2.7V1164z M1769.7,1164.1h2.3c1,0.1,2-0.2,2.8-0.6c0.7-0.5,1-1.2,1-2c0.1-0.8-0.3-1.5-0.9-1.9
	c-0.6-0.4-1.7-0.6-3.1-0.6h-2L1769.7,1164.1z M1778.5,1161.4c0,1.6-0.5,2.8-1.6,3.6c-1.1,0.8-2.7,1.3-4.7,1.2h-5.2v-16.1h2.7v6.5
	h2.3c2.1,0,3.7,0.4,4.8,1.2C1777.9,1158.8,1778.6,1160.1,1778.5,1161.4L1778.5,1161.4z M1762.6,1166.3h-2.7v-13.9h-4.7
	c-0.6,4.7-1.1,7.9-1.5,9.6s-0.9,2.9-1.5,3.5c-0.7,0.7-1.6,1-2.6,1c-0.5,0-1.1-0.1-1.6-0.3v-2.2c0.4,0.2,0.8,0.3,1.3,0.3
	c0.6,0,1.1-0.4,1.3-0.9c0.3-0.6,0.6-2,1-4.2c0.4-2.2,0.8-5.2,1.3-9h9.7L1762.6,1166.3z M1733.9,1158.2c0,2,0.4,3.5,1.2,4.5
	s2,1.5,3.7,1.5s2.8-0.5,3.6-1.5s1.2-2.5,1.2-4.5s-0.4-3.5-1.2-4.5c-0.8-1-2-1.5-3.6-1.5c-1.6,0-2.8,0.5-3.7,1.5
	C1734.3,1154.7,1733.9,1156.2,1733.9,1158.2z M1746.6,1158.2c0,2.6-0.7,4.7-2,6.1c-1.3,1.4-3.3,2.2-5.7,2.2s-4.4-0.7-5.8-2.2
	c-1.3-1.4-2-3.5-2-6.2s0.7-4.7,2-6.1c1.3-1.4,3.3-2.1,5.8-2.1c2.5,0,4.4,0.7,5.7,2.2C1745.9,1153.6,1746.6,1155.6,1746.6,1158.2
	L1746.6,1158.2z M1720,1164.1h1.9c1.3,0,2.3-0.2,2.9-0.6c0.6-0.5,1-1.2,0.9-2c0.1-0.8-0.3-1.5-0.9-1.9c-0.6-0.4-1.7-0.6-3.2-0.6
	h-1.6L1720,1164.1z M1728.5,1161.4c0,3.2-2.1,4.9-6.4,4.9h-4.8v-16.1h10.1v2.3h-7.4v4.3h2
	C1726.4,1156.7,1728.5,1158.3,1728.5,1161.4L1728.5,1161.4z M1700,1148.9c-1.6,0-2.8-0.3-3.5-0.8c-0.8-0.6-1.2-1.5-1.2-2.8h2.4
	c0,0.4,0.1,0.8,0.3,1.2c0.2,0.3,0.4,0.5,0.7,0.6c0.4,0.1,0.9,0.2,1.4,0.2c0.6,0,1.2-0.1,1.7-0.5c0.4-0.4,0.7-1,0.7-1.6h2.5
	c0,1.1-0.5,2.1-1.4,2.8C1702.8,1148.6,1701.6,1148.9,1700,1148.9L1700,1148.9z M1692.9,1150.2h2.5v8.4c0,0.9,0,1.8-0.1,2.7
	c0,0.9-0.1,1.5-0.1,1.8h0.1l8.5-12.8h3.2v16.1h-2.5v-8.3c0-1.3,0.1-2.8,0.2-4.6h-0.1l-8.5,12.9h-3.2L1692.9,1150.2z M1685.5,1159.5
	l-1.6-4.4c-0.1-0.3-0.3-0.8-0.5-1.4c-0.2-0.7-0.3-1.1-0.4-1.4c-0.2,1-0.5,2-0.9,3l-1.5,4.2L1685.5,1159.5z M1687.8,1166.3l-1.7-4.5
	h-6.3l-1.6,4.5h-2.9l6.2-16.2h2.9l6.2,16.2H1687.8z M1673.2,1166.3h-2.7v-7.3h-7.6v7.3h-2.7v-16.1h2.7v6.6h7.6v-6.6h2.7V1166.3z
	 M1656.4,1154c0,1-0.4,1.9-1.1,2.6c-0.8,0.7-1.9,1.2-3,1.3v0.1c1.2,0.1,2.4,0.5,3.3,1.3c0.8,0.7,1.2,1.6,1.1,2.6
	c0.1,1.4-0.6,2.7-1.8,3.5c-1.2,0.8-2.9,1.3-5,1.3c-2.2,0-4-0.3-5.3-0.9v-2.3c0.8,0.4,1.6,0.6,2.5,0.8c0.8,0.2,1.7,0.3,2.5,0.3
	c2.9,0,4.4-0.9,4.4-2.8c0-0.8-0.5-1.6-1.3-1.9c-0.9-0.4-2.2-0.7-3.9-0.7h-2v-2.1h1.9c3.3,0,5-0.9,5-2.6c0-0.6-0.3-1.3-0.8-1.6
	c-0.7-0.4-1.5-0.6-2.4-0.6c-0.8,0-1.5,0.1-2.3,0.3c-0.8,0.2-1.6,0.6-2.3,1l-1.2-1.8c1.8-1.2,3.9-1.8,6-1.7c1.8,0,3.1,0.4,4.2,1.1
	C1655.8,1151.7,1656.4,1152.8,1656.4,1154L1656.4,1154z M1643.7,1150.2l-5.2,11.5c-0.5,1.1-1,2.1-1.8,3.1c-0.5,0.6-1.1,1.1-1.9,1.4
	c-0.8,0.3-1.7,0.5-2.6,0.4c-0.8,0-1.6-0.1-2.4-0.3v-2.4c0.7,0.3,1.5,0.4,2.3,0.4c0.6,0,1.2-0.1,1.7-0.5c0.6-0.5,1-1.1,1.3-1.8
	l-6.1-11.9h2.9l4,8.1c0.3,0.5,0.5,1,0.7,1.5h0.1c0.1-0.3,0.2-0.6,0.3-0.9l3.7-8.7L1643.7,1150.2z"/>
<path fill-rule="evenodd" clip-rule="evenodd" fill="#575656" d="M1845.1,1147.5c6.1,0,11.1,4.8,11.1,10.8c0,5.9-5,10.8-11.1,10.8
	s-11.1-4.8-11.1-10.8C1834,1152.3,1839,1147.5,1845.1,1147.5C1845.1,1147.5,1845.1,1147.5,1845.1,1147.5"/>
<path fill="#575656" d="M1855.5,1158.3c0-5.6-4.6-10.1-10.4-10.1s-10.4,4.5-10.4,10.1c0,5.6,4.6,10.1,10.4,10.1c2.8,0,5.4-1.1,7.3-3
	C1854.4,1163.5,1855.4,1160.9,1855.5,1158.3 M1845.1,1146.8c6.5,0,11.7,5.1,11.7,11.4c0,6.3-5.3,11.4-11.7,11.4
	c-6.5,0-11.7-5.1-11.7-11.4C1833.3,1151.9,1838.6,1146.8,1845.1,1146.8L1845.1,1146.8z"/>
<polygon fill-rule="evenodd" clip-rule="evenodd" fill="#C5C6C6" points="1840.5,1151.5 1846.4,1154.9 1852.4,1158.3 1846.4,1161.6 
	1840.5,1165 1840.5,1158.3 "/>
</svg>
