<svg id="Layer_1" data-name="Layer 1" xmlns="http://www.w3.org/2000/svg" viewBox="0 0 1794.66 512.75">
  <defs>
    <style>
      .cls-1, .cls-2 {
        fill: #009ee3;
      }

      .cls-1 {
        fill-rule: evenodd;
      }
    </style>
  </defs>
  <title>river</title>
  <g>
    <path class="cls-1" d="M1120.69,687.53V555.84c-27.07.58-88.15,17.62-103.17,26S472.59,598,472.59,598l-46.78,70.75s567.74-10.68,580.45-9.24,56.31,21.81,114.43,28" transform="translate(-26.72 -371.41)"/>
    <path class="cls-1" d="M1277.49,371.41c19.25.41,38.51,0,57.77,0l61.2.95c1.51,0,3.22.91,4.93,2.26h-2.65v14.16h7.73v8.53H1402V403l-1.73,1h-65v18.11h-60.19c-2,0-3.63.16-3.63-5.13v-40.3c0-3.44,3.56-5.31,6-5.25" transform="translate(-26.72 -371.41)"/>
    <path class="cls-1" d="M397.59,669.47C297.82,681.82,112.3,719,26.72,785.83V605l420-2.1Z" transform="translate(-26.72 -371.41)"/>
    <rect class="cls-2" x="1135.05" y="217.79" width="283.15" height="60.64"/>
    <rect class="cls-2" x="1432.63" y="222.05" width="358.38" height="56.38"/>
    <path class="cls-1" d="M1448.1,873.78s.94-23.19,3.53-24.78,93-11.69,96-11.16,1.84,28.87,1.84,28.87l6.39.62-.35-6.32h93.9V837.82h67.19s6.59-.51,6.35,2.94,0,29,0,29l77.66.89v13.55l-102.73-1.09V861h-24.47v21.53L1546,879.81h-.24V861h-14.59v16.26l-52.56-2v-2.8h2.64V859.18H1472v13.29h2.64v2.32Z" transform="translate(-26.72 -371.41)"/>
    <rect class="cls-2" x="1395.56" y="7.84" width="399.1" height="5.34"/>
  </g>
</svg>
