<svg id="Layer_1" data-name="Layer 1" xmlns="http://www.w3.org/2000/svg" viewBox="0 0 3968.5 2551.18">
  <defs>
    <style>
      .cls-1, .cls-7 {
        fill: #575656;
      }

      .cls-2, .cls-4 {
        fill: #fff;
      }

      .cls-3, .cls-5 {
        fill: #009ee3;
      }

      .cls-3, .cls-4, .cls-6, .cls-7 {
        fill-rule: evenodd;
      }

      .cls-6 {
        fill: #c5c6c6;
      }
    </style>
  </defs>
  <title>УФ-печать 1400х900 мм на пластике (1)</title>
  <rect class="cls-1" width="3968.5" height="2551.18"/>
  <path class="cls-2" d="M2477.43,289.85h-86.77V449.42h86.77ZM2389.24,287h89.6a1.42,1.42,0,0,1,1.42,1.42V450.84a1.42,1.42,0,0,1-1.42,1.42h-89.6a1.43,1.43,0,0,1-1.42-1.42V288.43A1.43,1.43,0,0,1,2389.24,287Z"/>
  <path class="cls-2" d="M2387.82,234h-45.17V292.8h18.52a1.43,1.43,0,0,1,1.42,1.42V322.1h25.23Zm-46.59-2.84h48a1.43,1.43,0,0,1,1.42,1.42v91a1.42,1.42,0,0,1-1.42,1.41h-28.07a1.42,1.42,0,0,1-1.42-1.41V295.64h-18.52a1.43,1.43,0,0,1-1.42-1.42V232.56A1.43,1.43,0,0,1,2341.23,231.14Z"/>
  <path class="cls-2" d="M2257.36,263.06h12.2v-12.2h-12.2Zm13.61,2.83h-15a1.42,1.42,0,0,1-1.42-1.42v-15a1.43,1.43,0,0,1,1.42-1.42h15a1.42,1.42,0,0,1,1.42,1.42v15A1.41,1.41,0,0,1,2271,265.89Z"/>
  <path class="cls-2" d="M2841,313.43H2712.18V356.3H2841Zm-130.19-2.83h131.61a1.42,1.42,0,0,1,1.42,1.41v45.71a1.43,1.43,0,0,1-1.42,1.42H2710.76a1.42,1.42,0,0,1-1.41-1.42V312A1.41,1.41,0,0,1,2710.76,310.6Z"/>
  <path class="cls-2" d="M2710.76,356.3h131.61a1.43,1.43,0,0,1,1.42,1.42v31.6a1.43,1.43,0,0,1-1.42,1.42H2710.76a1.42,1.42,0,0,1-1.41-1.42v-31.6a1.42,1.42,0,0,1,1.41-1.42M2841,359.14H2712.18V387.9H2841Z"/>
  <path class="cls-2" d="M775.62,2308.82H317.68v100.86H775.62ZM316.26,2306H777a1.41,1.41,0,0,1,1.42,1.42v103.68a1.41,1.41,0,0,1-1.42,1.42H316.26a1.41,1.41,0,0,1-1.41-1.42V2307.41A1.41,1.41,0,0,1,316.26,2306Z"/>
  <path class="cls-2" d="M877.65,2412.51H777a1.41,1.41,0,0,1-1.41-1.42V2320.9a1.41,1.41,0,0,1,1.41-1.41H877.65a1.41,1.41,0,0,1,1.42,1.41v90.19a1.41,1.41,0,0,1-1.42,1.42m-99.2-2.83h97.79v-87.36H778.45Z"/>
  <path class="cls-2" d="M1408.79,2322.32H879.07v87.36h529.72Zm-531.14-2.83h532.56a1.42,1.42,0,0,1,1.42,1.41v90.19a1.42,1.42,0,0,1-1.42,1.42H877.65a1.41,1.41,0,0,1-1.41-1.42V2320.9A1.41,1.41,0,0,1,877.65,2319.49Z"/>
  <path class="cls-2" d="M1368.4,2198.62h41.81a1.42,1.42,0,0,1,1.42,1.42V2320.9a1.42,1.42,0,0,1-1.42,1.42H1368.4a1.42,1.42,0,0,1-1.42-1.42V2200a1.42,1.42,0,0,1,1.42-1.42m40.39,2.83h-39v118h39Z"/>
  <path class="cls-2" d="M1367,2201.45H1066.45v64.82H1367Zm-302-2.83H1368.4a1.42,1.42,0,0,1,1.42,1.42v67.64a1.42,1.42,0,0,1-1.42,1.42H1065a1.42,1.42,0,0,1-1.42-1.42V2200A1.42,1.42,0,0,1,1065,2198.62Z"/>
  <path class="cls-2" d="M1528.68,2171.64h-107v101.47h107Zm-108.41-2.83h109.82a1.41,1.41,0,0,1,1.42,1.41v104.31a1.41,1.41,0,0,1-1.42,1.41H1420.27a1.42,1.42,0,0,1-1.42-1.41V2170.22A1.42,1.42,0,0,1,1420.27,2168.81Z"/>
  <path class="cls-2" d="M1420.27,2273.11h109.82a1.41,1.41,0,0,1,1.42,1.42v124.55a1.41,1.41,0,0,1-1.42,1.41H1420.27a1.42,1.42,0,0,1-1.42-1.41V2274.53a1.42,1.42,0,0,1,1.42-1.42m108.41,2.83h-107v121.72h107Z"/>
  <path class="cls-2" d="M1841,2294.35H1531.51v47.48H1841Zm-310.88-2.83h312.3a1.41,1.41,0,0,1,1.41,1.41v50.31a1.41,1.41,0,0,1-1.41,1.42h-312.3a1.41,1.41,0,0,1-1.41-1.42v-50.31A1.41,1.41,0,0,1,1530.09,2291.52Z"/>
  <path class="cls-2" d="M1530.09,2341.83h312.3a1.41,1.41,0,0,1,1.41,1.41v55.84a1.41,1.41,0,0,1-1.41,1.41h-312.3a1.41,1.41,0,0,1-1.41-1.41v-55.84a1.41,1.41,0,0,1,1.41-1.41m310.88,2.83H1531.51v53H1841Z"/>
  <path class="cls-2" d="M863.35,2231.67H771.7v40.26h91.65Zm-93.07-2.84h94.49a1.43,1.43,0,0,1,1.42,1.42v43.1a1.43,1.43,0,0,1-1.42,1.42H770.28a1.42,1.42,0,0,1-1.41-1.42v-43.1A1.42,1.42,0,0,1,770.28,2228.83Z"/>
  <path class="cls-2" d="M254.41,1961.86H180.55v169h73.86ZM179.14,1959h76.69a1.42,1.42,0,0,1,1.42,1.42v171.79a1.42,1.42,0,0,1-1.42,1.41H179.14a1.41,1.41,0,0,1-1.42-1.41V1960.45A1.41,1.41,0,0,1,179.14,1959Z"/>
  <path class="cls-2" d="M3597,1164.15H3328.75V1225H3597Zm-269.66-2.84H3598.4a1.42,1.42,0,0,1,1.42,1.42v63.65a1.42,1.42,0,0,1-1.42,1.42H3327.33a1.43,1.43,0,0,1-1.42-1.42v-63.65A1.43,1.43,0,0,1,3327.33,1161.31Z"/>
  <path class="cls-2" d="M2846.32,1204.92h-38.73v35.34h38.73Zm-40.15-2.84h41.57a1.42,1.42,0,0,1,1.41,1.42v38.18a1.41,1.41,0,0,1-1.41,1.41h-41.57a1.42,1.42,0,0,1-1.42-1.41V1203.5A1.43,1.43,0,0,1,2806.17,1202.08Z"/>
  <path class="cls-2" d="M2682.5,1219.78h-9.59v15.11h9.59Zm-11-2.83h12.42a1.42,1.42,0,0,1,1.42,1.41v18a1.43,1.43,0,0,1-1.42,1.42H2671.5a1.42,1.42,0,0,1-1.42-1.42v-18A1.41,1.41,0,0,1,2671.5,1217Z"/>
  <path class="cls-2" d="M2648,1219.78h-9.59v15.11H2648Zm-11-2.83h12.42a1.42,1.42,0,0,1,1.42,1.41v18a1.43,1.43,0,0,1-1.42,1.42H2637a1.42,1.42,0,0,1-1.42-1.42v-18A1.41,1.41,0,0,1,2637,1217Z"/>
  <path class="cls-2" d="M1694.09,828.66H1593.23v181.23h100.86Zm-102.27-2.83h103.69a1.41,1.41,0,0,1,1.41,1.42v184.06a1.42,1.42,0,0,1-1.41,1.42H1591.82a1.42,1.42,0,0,1-1.42-1.42V827.25A1.41,1.41,0,0,1,1591.82,825.83Z"/>
  <path class="cls-2" d="M1719.86,882.73h-22.94v34.59h22.94Zm-24.35-2.83h25.76a1.41,1.41,0,0,1,1.42,1.41v37.43a1.42,1.42,0,0,1-1.42,1.42h-25.76a1.42,1.42,0,0,1-1.42-1.42V881.31A1.41,1.41,0,0,1,1695.51,879.9Z"/>
  <path class="cls-2" d="M1570.8,884.56h21a1.41,1.41,0,0,1,1.41,1.41v22.71a1.41,1.41,0,0,1-1.41,1.41h-21a1.41,1.41,0,0,1-1.41-1.41V886a1.41,1.41,0,0,1,1.41-1.41m19.6,2.83h-18.18v19.87h18.18Z"/>
  <path class="cls-2" d="M1590.4,956.66h-18.18v21.79h18.18Zm-19.6-2.83h21a1.41,1.41,0,0,1,1.41,1.42v24.62a1.41,1.41,0,0,1-1.41,1.41h-21a1.41,1.41,0,0,1-1.41-1.41V955.25A1.41,1.41,0,0,1,1570.8,953.83Z"/>
  <path class="cls-2" d="M1470.45,1013.63h-30.6v54.07h30.6Zm-32-2.84h33.44a1.43,1.43,0,0,1,1.42,1.42v56.91a1.42,1.42,0,0,1-1.42,1.41h-33.44a1.42,1.42,0,0,1-1.42-1.41v-56.91A1.43,1.43,0,0,1,1438.43,1010.79Z"/>
  <rect class="cls-2" x="1462.05" y="1075.79" width="13.8" height="31.29"/>
  <rect class="cls-2" x="1494.52" y="1121.48" width="33.38" height="21.17"/>
  <rect class="cls-2" x="1569.12" y="1119.45" width="21.01" height="21.17"/>
  <path class="cls-2" d="M1105.64,1677.28h-29.53v21.86h29.53Zm-31-2.84h32.37a1.43,1.43,0,0,1,1.42,1.42v24.7a1.42,1.42,0,0,1-1.42,1.41h-32.37a1.41,1.41,0,0,1-1.41-1.41v-24.7A1.42,1.42,0,0,1,1074.69,1674.44Z"/>
  <path class="cls-2" d="M1170,354.29h-49.62v27.54H1170Zm-51-2.83h52.46a1.41,1.41,0,0,1,1.41,1.42v30.37a1.41,1.41,0,0,1-1.41,1.41h-52.46a1.42,1.42,0,0,1-1.42-1.41V352.88A1.42,1.42,0,0,1,1118.93,351.46Z"/>
  <path class="cls-2" d="M1366.92,344.32h-141v39.81h141Zm-142.46-2.83h143.87a1.41,1.41,0,0,1,1.42,1.42v42.64a1.41,1.41,0,0,1-1.42,1.41H1224.46a1.42,1.42,0,0,1-1.42-1.41V342.91A1.42,1.42,0,0,1,1224.46,341.49Z"/>
  <path class="cls-2" d="M1489.32,352H1408.1v32.14h81.22Zm-82.64-2.83h84.06a1.41,1.41,0,0,1,1.41,1.41v35a1.41,1.41,0,0,1-1.41,1.41h-84.06a1.42,1.42,0,0,1-1.42-1.41v-35A1.42,1.42,0,0,1,1406.68,349.16Z"/>
  <path class="cls-2" d="M2086,473.64h-68.65v49.63H2086Zm-70.06-2.83h71.48a1.41,1.41,0,0,1,1.41,1.41v52.46a1.41,1.41,0,0,1-1.41,1.42H2015.9a1.41,1.41,0,0,1-1.42-1.42V472.22A1.41,1.41,0,0,1,2015.9,470.81Z"/>
  <path class="cls-2" d="M2317.76,2174.84H2200.34v51.77h117.42ZM2198.92,2172h120.25a1.41,1.41,0,0,1,1.42,1.41V2228a1.42,1.42,0,0,1-1.42,1.42H2198.92a1.43,1.43,0,0,1-1.42-1.42v-54.61A1.42,1.42,0,0,1,2198.92,2172Z"/>
  <rect class="cls-2" x="2436.36" y="2180.48" width="90.5" height="34.67"/>
  <rect class="cls-2" x="2543.73" y="2180.48" width="37.73" height="34.67"/>
  <rect class="cls-2" x="2869.83" y="2184.36" width="22.09" height="22.09"/>
  <rect class="cls-2" x="3107.27" y="2192.03" width="22.09" height="23.31"/>
  <path class="cls-2" d="M3258.93,2201.14H3200.1v29.37h58.83Zm-60.25-2.84h61.66a1.42,1.42,0,0,1,1.42,1.42v32.21a1.42,1.42,0,0,1-1.42,1.42h-61.66a1.42,1.42,0,0,1-1.41-1.42v-32.21A1.42,1.42,0,0,1,3198.68,2198.3Z"/>
  <path class="cls-2" d="M3310,2199.06h-41V2366.8h41Zm-42.45-2.83h43.87a1.41,1.41,0,0,1,1.41,1.42v170.56a1.41,1.41,0,0,1-1.41,1.42h-43.87a1.42,1.42,0,0,1-1.42-1.42V2197.65A1.42,1.42,0,0,1,3267.51,2196.23Z"/>
  <path class="cls-3" d="M2324.23,1460.71V1180.93c-57.51,1.23-187.28,37.43-219.19,55.22s-1157.75,34.36-1157.75,34.36L847.9,1420.83s1206.22-22.7,1233.21-19.63,119.65,46.32,243.12,59.51"/>
  <path class="cls-2" d="M3785.89,877.09h-87.35V1031.6h87.35Zm-88.77-2.84h90.19a1.43,1.43,0,0,1,1.42,1.42V1033a1.43,1.43,0,0,1-1.42,1.42h-90.19a1.43,1.43,0,0,1-1.42-1.42V875.67A1.43,1.43,0,0,1,3697.12,874.25Z"/>
  <path class="cls-2" d="M3785.89,1034.44h-87.35v135.21h87.35Zm-88.77-2.84h90.19a1.43,1.43,0,0,1,1.42,1.42v138a1.43,1.43,0,0,1-1.42,1.42h-90.19a1.43,1.43,0,0,1-1.42-1.42V1033A1.43,1.43,0,0,1,3697.12,1031.6Z"/>
  <path class="cls-2" d="M3785.89,1172.49h-87.35v63.42h87.35Zm-88.77-2.84h90.19a1.43,1.43,0,0,1,1.42,1.42v66.26a1.43,1.43,0,0,1-1.42,1.42h-90.19a1.43,1.43,0,0,1-1.42-1.42v-66.26A1.43,1.43,0,0,1,3697.12,1169.65Z"/>
  <path class="cls-2" d="M1036.77,1714l-283,92,31.36,96.51,283-92Zm-285.26,89.71,285.73-92.84a1.42,1.42,0,0,1,1.78.91l32.23,99.2a1.41,1.41,0,0,1-.91,1.78l-285.72,92.84a1.42,1.42,0,0,1-1.78-.91l-32.24-99.2A1.42,1.42,0,0,1,751.51,1803.68Z"/>
  <path class="cls-2" d="M283.47,1871.3l-2.42-114.91a1.4,1.4,0,0,1,1-1.47l362-113.76-35.82-101.65-422.5,133V1871.3Zm.42-114,2.43,115.39a1.4,1.4,0,0,1-1.38,1.44H184.29a1.43,1.43,0,0,1-1.42-1.42V1671.48a1.43,1.43,0,0,1,1.08-1.38l424.72-133.7a1.41,1.41,0,0,1,1.76.9l36.75,104.3a1.4,1.4,0,0,1-.86,1.8Z"/>
  <path class="cls-2" d="M246.55,2219H188.34v36.13h58.21Zm-59.63-2.83h61a1.41,1.41,0,0,1,1.42,1.42v39a1.41,1.41,0,0,1-1.42,1.41h-61a1.41,1.41,0,0,1-1.42-1.41v-39A1.41,1.41,0,0,1,186.92,2216.14Z"/>
  <path class="cls-2" d="M200.66,2320.42H194.9v7h5.76Zm-7.17-2.83h8.59a1.41,1.41,0,0,1,1.41,1.42v9.81a1.42,1.42,0,0,1-1.41,1.42h-8.59a1.42,1.42,0,0,1-1.42-1.42V2319A1.41,1.41,0,0,1,193.49,2317.59Z"/>
  <path class="cls-2" d="M3114.36,1671.65H3058.3v32.75h56.06Zm-57.48-2.84h58.9a1.43,1.43,0,0,1,1.42,1.42v35.59a1.42,1.42,0,0,1-1.42,1.41h-58.9a1.42,1.42,0,0,1-1.42-1.41v-35.59A1.43,1.43,0,0,1,3056.88,1668.81Z"/>
  <path class="cls-2" d="M3329,1683.65H3228.18v40.12H3329Zm-102.25-2.83h103.66a1.41,1.41,0,0,1,1.42,1.41v43a1.41,1.41,0,0,1-1.42,1.42H3226.77a1.41,1.41,0,0,1-1.42-1.42v-43A1.41,1.41,0,0,1,3226.77,1680.82Z"/>
  <path class="cls-2" d="M3700.15,1687.33h-49.32v32.75h49.32Zm-50.73-2.83h52.15a1.42,1.42,0,0,1,1.42,1.42v35.58a1.43,1.43,0,0,1-1.42,1.42h-52.15a1.42,1.42,0,0,1-1.42-1.42v-35.58A1.41,1.41,0,0,1,3649.42,1684.5Z"/>
  <path class="cls-2" d="M3162.16,1493.46l-6.48-6.48h-18.31l-12.95,13v18.32l12.95,12.94h18.31l13-12.94v-18.32Zm-4.89-8.9,13.78,13.78a1.41,1.41,0,0,1,.42,1v19.49a1.39,1.39,0,0,1-.42,1l-13.78,13.78a1.39,1.39,0,0,1-1,.42h-19.49a1.41,1.41,0,0,1-1-.42L3122,1519.83a1.42,1.42,0,0,1-.41-1v-19.49a1.44,1.44,0,0,1,.41-1l13.78-13.78a1.44,1.44,0,0,1,1-.41h19.49A1.42,1.42,0,0,1,3157.27,1484.56Z"/>
  <path class="cls-2" d="M3770.62,1410.93h-21.71v33.44h21.71Zm-23.13-2.83H3772a1.41,1.41,0,0,1,1.42,1.42v36.27a1.41,1.41,0,0,1-1.42,1.41h-24.54a1.42,1.42,0,0,1-1.42-1.41v-36.27A1.42,1.42,0,0,1,3747.49,1408.1Z"/>
  <polygon class="cls-4" points="2932.04 1652.14 2981.76 1652.14 2984.74 1646.98 2994.17 1646.98 3003.6 1646.98 3008.32 1655.15 3013.04 1663.32 3008.32 1671.49 3003.6 1679.66 2994.17 1679.66 2984.74 1679.66 2981.96 1674.84 2932.04 1674.84 2932.04 1652.14"/>
  <rect class="cls-2" x="2752.33" y="1759.68" width="123.94" height="22.7"/>
  <rect class="cls-2" x="2835.86" y="1741.27" width="20.55" height="22.7"/>
  <path class="cls-2" d="M1506.9,2149.81h-24.17v19h24.17Zm-25.58-2.84h27a1.42,1.42,0,0,1,1.42,1.42v21.83a1.41,1.41,0,0,1-1.42,1.42h-27a1.41,1.41,0,0,1-1.42-1.42v-21.83A1.42,1.42,0,0,1,1481.32,2147Z"/>
  <rect class="cls-2" x="1535.84" y="2182.32" width="19.94" height="25.51"/>
  <rect class="cls-2" x="1556.68" y="2212.65" width="19.94" height="21.42"/>
  <path class="cls-2" d="M2110.26,2264.59h-2.69v16.34h2.69Zm-4.11-2.83h5.52a1.41,1.41,0,0,1,1.42,1.41v19.18a1.42,1.42,0,0,1-1.42,1.42h-5.52a1.43,1.43,0,0,1-1.42-1.42v-19.18A1.42,1.42,0,0,1,2106.15,2261.76Z"/>
  <path class="cls-2" d="M2115.78,2264.59h-2.69v16.34h2.69Zm-4.11-2.83h5.53a1.41,1.41,0,0,1,1.41,1.41v19.18a1.42,1.42,0,0,1-1.41,1.42h-5.53a1.42,1.42,0,0,1-1.41-1.42v-19.18A1.41,1.41,0,0,1,2111.67,2261.76Z"/>
  <path class="cls-2" d="M2121.3,2264.59h-2.69v16.34h2.69Zm-4.1-2.83h5.52a1.41,1.41,0,0,1,1.41,1.41v19.18a1.42,1.42,0,0,1-1.41,1.42h-5.52a1.42,1.42,0,0,1-1.42-1.42v-19.18A1.41,1.41,0,0,1,2117.2,2261.76Z"/>
  <path class="cls-2" d="M2126.82,2264.59h-2.69v16.34h2.69Zm-4.1-2.83h5.52a1.42,1.42,0,0,1,1.42,1.41v19.18a1.43,1.43,0,0,1-1.42,1.42h-5.52a1.42,1.42,0,0,1-1.42-1.42v-19.18A1.41,1.41,0,0,1,2122.72,2261.76Z"/>
  <path class="cls-2" d="M2132.34,2264.59h-2.68v16.34h2.68Zm-4.1-2.83h5.52a1.42,1.42,0,0,1,1.42,1.41v19.18a1.43,1.43,0,0,1-1.42,1.42h-5.52a1.43,1.43,0,0,1-1.42-1.42v-19.18A1.42,1.42,0,0,1,2128.24,2261.76Z"/>
  <path class="cls-2" d="M2137.87,2264.59h-2.69v16.34h2.69Zm-4.11-2.83h5.52a1.41,1.41,0,0,1,1.42,1.41v19.18a1.42,1.42,0,0,1-1.42,1.42h-5.52a1.43,1.43,0,0,1-1.42-1.42v-19.18A1.42,1.42,0,0,1,2133.76,2261.76Z"/>
  <path class="cls-2" d="M314.85,2373.19H261.42v36.49h53.43ZM260,2370.35h56.26a1.42,1.42,0,0,1,1.42,1.42v39.32a1.41,1.41,0,0,1-1.42,1.42H260a1.41,1.41,0,0,1-1.41-1.42v-39.32A1.42,1.42,0,0,1,260,2370.35Z"/>
  <path class="cls-2" d="M234.85,2398.92l24-28a1.42,1.42,0,0,1,2.56.84v39.32a1.41,1.41,0,0,1-1.42,1.42H248a1.42,1.42,0,0,1-1-.38l-12-11.25a1.42,1.42,0,0,1-.11-2m23.74-23.33-20.71,24.14,10.64,9.95h10.07Z"/>
  <path class="cls-2" d="M172.2,2474.89a1.41,1.41,0,0,1-2.32-1.62c95.25-137.16,218.32-338.53,345.3-546.32,186.91-305.84,382.31-625.57,510.06-775,31.81-37.21,60.62-62.52,88.1-86.66,10.72-9.43,21.25-18.68,31.73-28.44,36.8-34.3,74.27-65.86,122.61-97.22s107.5-62.5,187.7-96c9.23-3.86,18.07-7.59,27.29-11.49,56.58-23.93,127.51-53.92,212.43-79.72,39.11-11.88,88.78-28.08,144.53-46.27,212.9-69.45,514.67-167.89,667.94-168.79a1.42,1.42,0,1,1,0,2.83c-152.8.89-454.34,99.25-667.08,168.65-55.62,18.14-105.16,34.31-144.58,46.28-84.77,25.76-155.63,55.72-212.15,79.62-9.79,4.14-19.16,8.1-27.31,11.5-80,33.4-139.06,64.46-187.24,95.72s-85.52,62.71-122.23,96.92c-10.42,9.71-21,19-31.79,28.49-27.4,24.07-56.12,49.31-87.81,86.38-127.6,149.25-322.94,468.88-509.8,774.63-127,207.86-250.13,409.3-345.39,546.47"/>
  <path class="cls-2" d="M2438.25,648.65c.25-.81.31-1,0-.14Zm-930.38,176a1.41,1.41,0,1,1-1.16-2.58c.25-.12,85.68-39.34,213.22-53.17,93.91-10.18,178.38-19.18,261-14s163.58,24.65,250.11,71.36c45.94,24.79,87.86,56.06,127.72,93.83s77.62,82,115.33,132.78c60.11,81,242.21,113,448.71,116.69,291.21,5.21,630.67-46,745.8-95.39.56-88.37.23-180.85.18-193.26l-321,1.77-1.15,231.74a1.42,1.42,0,0,1-1,1.35h0c-28.54,8.88-86.72,21.6-158.73,30.86-52.6,6.75-112.6,11.66-173.82,11.87-76.18.27-154-5.37-220.36-13.39-80.68-9.76-144.46-23.06-167.68-33.58-28.73-13-83.93-60.26-126.62-110.58-33.05-39-58.66-79.85-58.85-108.35-.41-60.43-1.62-160.39-2.81-211.69-.24-10.4-.49-18.81-.72-24.49a55.67,55.67,0,0,1,1.76-6.34,1.41,1.41,0,0,1-2.57-.93,5.61,5.61,0,0,1,.22-1.24c1.28-3.56,2.19-3.18,2.78.6l-.13.35s0,.15,0,.41l.19-.62a75.84,75.84,0,0,1,.61,7.65c.24,5.64.48,14.08.72,24.56,1.19,51.29,2.4,151.27,2.81,211.73.19,27.75,25.51,68,58.19,106.53,42.44,50,97.21,97,125.62,109.83,23,10.42,86.45,23.62,166.85,33.35,66.29,8,144,13.64,220,13.38,61.09-.21,121-5.11,173.46-11.86,71-9.12,128.48-21.61,157.26-30.45l1.15-232.1a1.4,1.4,0,0,1,1.4-1.4l323.87-1.79a1.41,1.41,0,0,1,1.41,1.41c0,.29.43,100.53-.18,195.63a1.42,1.42,0,0,1-.86,1.29c-114.58,49.66-455.55,101.2-747.8,96-207.29-3.71-390.22-36-450.94-117.83-37.61-50.67-75.29-94.79-115-132.42s-81.41-68.72-127.12-93.39c-86.13-46.49-166.6-65.84-248.94-71s-166.78,3.79-260.56,14C1593.15,785.46,1508.12,824.5,1507.87,824.62Z"/>
  <path class="cls-2" d="M3346.2,910.93a1.41,1.41,0,1,1,0-2.82L3670.34,907a1.41,1.41,0,0,1,0,2.82Z"/>
  <path class="cls-2" d="M3346.05,938.76a1.41,1.41,0,1,1,0-2.82l324.29-1.36a1.42,1.42,0,0,1,0,2.83Z"/>
  <path class="cls-2" d="M3345.9,964.92a1.41,1.41,0,1,1,0-2.82L3670,961a1.42,1.42,0,1,1,0,2.83Z"/>
  <path class="cls-2" d="M3382.16,1009.16l-20,2.44,5.63,46.22,20-2.44Zm-21.73-.2,22.8-2.78a1.42,1.42,0,0,1,1.57,1.24l6,49a1.42,1.42,0,0,1-1.25,1.57l-22.79,2.78a1.42,1.42,0,0,1-1.57-1.24l-6-49A1.42,1.42,0,0,1,3360.43,1009Z"/>
  <path class="cls-2" d="M3331.07,1009.4l-20,2.44,5.64,46.22,20-2.44Zm-21.72-.2,22.79-2.78a1.42,1.42,0,0,1,1.58,1.24l6,49a1.41,1.41,0,0,1-1.24,1.57l-22.79,2.78a1.41,1.41,0,0,1-1.57-1.24l-6-49A1.41,1.41,0,0,1,3309.35,1009.2Z"/>
  <path class="cls-2" d="M1803.49,720.93a1.41,1.41,0,0,1-.58-2.76c46.15-9.66,100.1-22.11,157.91-35.45,186.89-43.11,414.18-95.54,550.32-93.6a1.42,1.42,0,0,1,0,2.83c-135.79-2-362.91,50.45-549.66,93.53-57.81,13.34-111.75,25.78-158,35.45"/>
  <path class="cls-2" d="M2023.71,671.14a1.41,1.41,0,1,1-.17-2.82l489.94-30.68a1.41,1.41,0,1,1,.16,2.82Z"/>
  <path class="cls-2" d="M1039.21,554.39a1.42,1.42,0,0,0,0-2.83l-14.18.13a1.44,1.44,0,0,0-1,.47,1.42,1.42,0,0,0,1.07,2.37Zm22.68-.22a1.44,1.44,0,0,0,1-.47,1.41,1.41,0,0,0-1.07-2.36l-14.17.13a1.44,1.44,0,0,0-1,.47,1.42,1.42,0,0,0,1.07,2.37Zm22.67-.22a1.37,1.37,0,0,0,1-.47,1.41,1.41,0,0,0-1.06-2.36l-14.17.13a1.42,1.42,0,0,0,0,2.84Zm22.68-.22a1.42,1.42,0,1,0,0-2.83L1093,551a1.42,1.42,0,1,0,0,2.83Zm22.68-.21a1.44,1.44,0,0,0,1-.47,1.42,1.42,0,0,0-1.07-2.37l-14.17.14a1.37,1.37,0,0,0-1,.47,1.41,1.41,0,0,0,1.06,2.36Zm22.67-.22a1.42,1.42,0,0,0,0-2.84l-14.17.14a1.44,1.44,0,0,0-1,.47,1.42,1.42,0,0,0,1.07,2.36Zm22.68-.22a1.44,1.44,0,0,0,1-.47,1.42,1.42,0,0,0-1.07-2.37l-14.17.14a1.42,1.42,0,0,0,0,2.84Zm22.67-.22a1.42,1.42,0,0,0,0-2.83l-14.18.13a1.42,1.42,0,0,0,0,2.84Zm22.68-.22a1.44,1.44,0,0,0,1-.47,1.41,1.41,0,0,0-1.07-2.36l-14.17.13a1.44,1.44,0,0,0-1,.47,1.42,1.42,0,0,0,1.07,2.37Zm22.68-.22a1.37,1.37,0,0,0,1-.47,1.41,1.41,0,0,0-1.06-2.36l-14.17.13a1.42,1.42,0,0,0,0,2.84Zm22.67-.22a1.42,1.42,0,1,0,0-2.83l-14.17.14a1.42,1.42,0,1,0,0,2.83Zm22.68-.21a1.44,1.44,0,0,0,1-.47,1.42,1.42,0,0,0-1.07-2.37l-14.17.14a1.37,1.37,0,0,0-1,.47,1.41,1.41,0,0,0,1.06,2.36Zm22.67-.22a1.42,1.42,0,0,0,0-2.84l-14.18.14a1.44,1.44,0,0,0-1,.47,1.42,1.42,0,0,0,1.07,2.36Zm22.68-.22a1.44,1.44,0,0,0,1-.47,1.42,1.42,0,0,0-1.07-2.37l-14.17.14a1.42,1.42,0,0,0,0,2.84Zm22.67-.22a1.42,1.42,0,0,0,0-2.83l-14.18.13a1.42,1.42,0,0,0,0,2.84Zm22.68-.22a1.44,1.44,0,0,0,1-.47,1.41,1.41,0,0,0-1.07-2.36l-14.17.13a1.44,1.44,0,0,0-1,.47,1.42,1.42,0,0,0,1.07,2.37Zm22.68-.22a1.39,1.39,0,0,0,1-.46,1.42,1.42,0,0,0-1.06-2.37l-14.17.14a1.4,1.4,0,0,0-1,.46,1.42,1.42,0,0,0,1.06,2.37Zm22.67-.22a1.4,1.4,0,0,0,1-.46,1.42,1.42,0,0,0-1.07-2.37l-14.17.14a1.42,1.42,0,1,0,0,2.83Zm22.68-.21a1.44,1.44,0,0,0,1-.47,1.42,1.42,0,0,0-1.07-2.37l-14.17.14a1.37,1.37,0,0,0-1,.47,1.41,1.41,0,0,0,1.06,2.36Zm22.67-.22a1.42,1.42,0,0,0,0-2.84l-14.18.14a1.44,1.44,0,0,0-1,.47,1.42,1.42,0,0,0,1.07,2.36Zm22.68-.22a1.44,1.44,0,0,0,1-.47,1.42,1.42,0,0,0-1.07-2.37l-14.17.14a1.44,1.44,0,0,0-1,.47,1.42,1.42,0,0,0,1.07,2.37Zm22.68-.22a1.42,1.42,0,0,0,0-2.83l-14.17.13a1.42,1.42,0,0,0,0,2.84Zm22.67-.22a1.37,1.37,0,0,0,1-.47,1.41,1.41,0,0,0-1.07-2.36l-14.17.13a1.44,1.44,0,0,0-1,.47,1.42,1.42,0,0,0,1.07,2.37Zm22.68-.22a1.42,1.42,0,1,0,0-2.83l-14.17.14a1.4,1.4,0,0,0-1,.46,1.42,1.42,0,0,0,1.06,2.37Zm22.67-.22a1.4,1.4,0,0,0,1-.46,1.42,1.42,0,0,0-1.06-2.37l-14.18.14a1.42,1.42,0,1,0,0,2.83Zm22.68-.21a1.44,1.44,0,0,0,1-.47,1.42,1.42,0,0,0-1.07-2.37l-14.17.14a1.42,1.42,0,1,0,0,2.83Zm22.68-.22a1.42,1.42,0,0,0,0-2.84l-14.17.14a1.42,1.42,0,0,0,0,2.83Zm22.67-.22a1.42,1.42,0,0,0,0-2.84l-14.17.14a1.44,1.44,0,0,0-1,.47,1.42,1.42,0,0,0,1.07,2.37Zm22.68-.22a1.44,1.44,0,0,0,1-.47,1.42,1.42,0,0,0-1.07-2.36l-14.17.13a1.42,1.42,0,0,0,0,2.84Zm22.67-.22a1.37,1.37,0,0,0,1-.47,1.41,1.41,0,0,0-1.06-2.36l-14.18.13a1.44,1.44,0,0,0-1,.47,1.42,1.42,0,0,0,1.07,2.37Zm22.68-.22a1.42,1.42,0,1,0,0-2.83l-14.17.14a1.42,1.42,0,1,0,0,2.83Zm22.68-.22a1.39,1.39,0,0,0,1-.46,1.42,1.42,0,0,0-1.06-2.37l-14.17.14a1.4,1.4,0,0,0-1,.46,1.42,1.42,0,0,0,1.06,2.37Zm22.67-.21a1.42,1.42,0,0,0,0-2.84l-14.17.14a1.42,1.42,0,1,0,0,2.83Zm22.68-.22a1.44,1.44,0,0,0,1-.47,1.42,1.42,0,0,0-1.07-2.37l-14.17.14a1.42,1.42,0,0,0,0,2.83Zm22.67-.22a1.42,1.42,0,0,0,0-2.84l-14.18.14a1.44,1.44,0,0,0-1,.47,1.42,1.42,0,0,0,1.07,2.37Zm22.68-.22a1.44,1.44,0,0,0,1-.47,1.41,1.41,0,0,0-1.07-2.36l-14.17.13a1.44,1.44,0,0,0-1,.47,1.42,1.42,0,0,0,1.07,2.37Zm22.68-.22a1.37,1.37,0,0,0,1-.47,1.41,1.41,0,0,0-1.06-2.36l-14.17.13a1.42,1.42,0,0,0,0,2.84Zm22.67-.22a1.4,1.4,0,0,0,1-.46,1.42,1.42,0,0,0-1.06-2.37l-14.18.14a1.42,1.42,0,1,0,0,2.83Zm22.68-.22a1.42,1.42,0,1,0,0-2.83l-14.17.14a1.4,1.4,0,0,0-1,.46,1.42,1.42,0,0,0,1.07,2.37Zm22.67-.21a1.42,1.42,0,0,0,0-2.84l-14.17.14a1.37,1.37,0,0,0-1,.47,1.41,1.41,0,0,0,1.06,2.36Zm22.68-.22a1.42,1.42,0,0,0,0-2.84l-14.17.14a1.44,1.44,0,0,0-1,.47,1.42,1.42,0,0,0,1.07,2.36Zm22.68-.22a1.44,1.44,0,0,0,1-.47,1.42,1.42,0,0,0-1.07-2.37l-14.17.14a1.42,1.42,0,0,0,0,2.84Zm22.67-.22a1.42,1.42,0,0,0,0-2.83l-14.18.13a1.42,1.42,0,0,0,0,2.84Zm22.68-.22a1.42,1.42,0,1,0,0-2.83l-14.17.13a1.44,1.44,0,0,0-1,.47,1.42,1.42,0,0,0,1.07,2.37Zm22.68-.22a1.42,1.42,0,1,0,0-2.83l-14.17.14a1.4,1.4,0,0,0-1,.46,1.42,1.42,0,0,0,1.06,2.37Zm22.67-.21a1.42,1.42,0,0,0,0-2.84l-14.18.14a1.42,1.42,0,1,0,0,2.83Zm22.68-.22a1.44,1.44,0,0,0,1-.47,1.42,1.42,0,0,0-1.07-2.37l-14.17.14a1.44,1.44,0,0,0-1,.47,1.41,1.41,0,0,0,1.07,2.36Zm22.68-.22a1.42,1.42,0,0,0,0-2.84l-14.17.14a1.42,1.42,0,0,0,0,2.83Zm22.67-.22a1.42,1.42,0,0,0,0-2.84l-14.17.14a1.44,1.44,0,0,0-1,.47,1.42,1.42,0,0,0,1.07,2.37Zm22.68-.22a1.44,1.44,0,0,0,1-.47,1.42,1.42,0,0,0-1.07-2.36l-14.17.13a1.42,1.42,0,0,0,0,2.84Zm22.67-.22a1.37,1.37,0,0,0,1-.47,1.41,1.41,0,0,0-1.06-2.36l-14.18.13a1.42,1.42,0,0,0,0,2.84Zm22.68-.22a1.42,1.42,0,1,0,0-2.83l-14.17.14a1.42,1.42,0,1,0,0,2.83Zm22.68-.21a1.44,1.44,0,0,0,1-.47,1.42,1.42,0,0,0-1.07-2.37l-14.17.14a1.37,1.37,0,0,0-1,.47,1.41,1.41,0,0,0,1.06,2.36Zm22.67-.22a1.42,1.42,0,0,0,0-2.84l-14.18.14a1.44,1.44,0,0,0-1,.47,1.42,1.42,0,0,0,1.07,2.36Zm22.68-.22a1.44,1.44,0,0,0,1-.47,1.42,1.42,0,0,0-1.07-2.37l-14.17.14a1.44,1.44,0,0,0-1,.47,1.41,1.41,0,0,0,1.07,2.36Zm22.68-.22a1.42,1.42,0,0,0,0-2.84l-14.17.14a1.42,1.42,0,0,0,0,2.84Zm22.67-.22a1.42,1.42,0,0,0,0-2.83l-14.18.13a1.44,1.44,0,0,0-1,.47,1.42,1.42,0,0,0,1.07,2.37Zm22.68-.22a1.44,1.44,0,0,0,1-.47,1.41,1.41,0,0,0-1.07-2.36l-14.17.13a1.42,1.42,0,0,0,0,2.84Zm22.68-.22a1.37,1.37,0,0,0,1-.47,1.41,1.41,0,0,0-1.06-2.36l-14.17.13a1.42,1.42,0,0,0,0,2.84Zm22.67-.22a1.4,1.4,0,0,0,1-.46,1.42,1.42,0,0,0-1.06-2.37l-14.18.14a1.42,1.42,0,1,0,0,2.83Zm22.68-.22a1.42,1.42,0,1,0,0-2.83l-14.17.14a1.4,1.4,0,0,0-1,.46,1.42,1.42,0,0,0,1.07,2.37Zm22.68-.22a1.39,1.39,0,0,0,1-.46,1.42,1.42,0,0,0-1.06-2.37l-14.17.14a1.37,1.37,0,0,0-1,.47,1.41,1.41,0,0,0,1.06,2.36Zm22.44-.21a1.44,1.44,0,0,0,1-.47,1.42,1.42,0,0,0-1.07-2.37l-13.94.14a1.42,1.42,0,1,0,0,2.83ZM1002.34,551.91a1.42,1.42,0,1,0,0,2.83l14.17-.13a1.44,1.44,0,0,0,1-.47,1.42,1.42,0,0,0-1.07-2.37Z"/>
  <path class="cls-2" d="M1039.22,609.2a1.42,1.42,0,0,0,0-2.84l-14.17.18a1.42,1.42,0,1,0,0,2.83Zm22.67-.29a1.42,1.42,0,1,0,0-2.83l-14.18.18a1.42,1.42,0,0,0,0,2.83Zm22.68-.28a1.42,1.42,0,0,0,0-2.83l-14.17.17a1.42,1.42,0,0,0,0,2.84Zm22.67-.28a1.42,1.42,0,0,0,0-2.84l-14.18.18a1.42,1.42,0,0,0,0,2.84Zm22.68-.28a1.42,1.42,0,0,0,0-2.84l-14.17.18a1.42,1.42,0,1,0,0,2.83Zm22.67-.29a1.42,1.42,0,1,0,0-2.83l-14.17.18a1.42,1.42,0,1,0,0,2.83Zm22.68-.28a1.42,1.42,0,0,0,0-2.83l-14.17.17a1.42,1.42,0,1,0,0,2.84Zm22.67-.28a1.42,1.42,0,0,0,0-2.84l-14.17.18a1.42,1.42,0,1,0,0,2.83Zm22.68-.29a1.42,1.42,0,0,0,0-2.83l-14.17.18A1.41,1.41,0,0,0,1205,606a1.43,1.43,0,0,0,1.42,1.16Zm22.67-.28a1.42,1.42,0,1,0,0-2.83l-14.17.17a1.42,1.42,0,0,0,0,2.84Zm22.68-.28a1.42,1.42,0,0,0,0-2.84l-14.17.18a1.42,1.42,0,0,0-1.38,1.68,1.44,1.44,0,0,0,1.42,1.16Zm22.67-.28a1.42,1.42,0,0,0,0-2.84l-14.17.18a1.42,1.42,0,1,0,0,2.83Zm22.68-.29a1.42,1.42,0,0,0,0-2.83l-14.17.18a1.42,1.42,0,0,0,0,2.83Zm22.67-.28a1.42,1.42,0,1,0,0-2.83l-14.17.17a1.42,1.42,0,0,0,0,2.84Zm22.68-.28a1.42,1.42,0,1,0,0-2.84l-14.17.18a1.42,1.42,0,0,0,0,2.83Zm22.67-.29a1.42,1.42,0,1,0,0-2.83l-14.17.18a1.42,1.42,0,1,0,0,2.83Zm22.68-.28a1.42,1.42,0,1,0,0-2.83l-14.17.17a1.42,1.42,0,0,0,0,2.84Zm22.67-.28a1.42,1.42,0,0,0,0-2.84l-14.17.18a1.42,1.42,0,0,0,0,2.84Zm22.68-.28a1.42,1.42,0,1,0,0-2.84l-14.17.18a1.42,1.42,0,0,0,0,2.83Zm22.68-.29a1.42,1.42,0,0,0,0-2.83l-14.17.17a1.42,1.42,0,0,0,0,2.84Zm22.67-.28a1.42,1.42,0,1,0,0-2.83l-14.18.17a1.42,1.42,0,0,0,0,2.84Zm22.68-.28a1.42,1.42,0,0,0,0-2.84l-14.17.18a1.42,1.42,0,1,0,0,2.83Zm22.67-.29a1.42,1.42,0,1,0,0-2.83l-14.18.18a1.42,1.42,0,0,0,0,2.83Zm22.68-.28a1.42,1.42,0,0,0,0-2.83l-14.17.17a1.42,1.42,0,0,0,0,2.84Zm22.67-.28a1.42,1.42,0,0,0,0-2.84l-14.18.18a1.42,1.42,0,0,0,0,2.84Zm22.68-.28a1.42,1.42,0,0,0,0-2.84l-14.17.18a1.42,1.42,0,1,0,0,2.83Zm22.67-.29a1.42,1.42,0,1,0,0-2.83l-14.18.17a1.42,1.42,0,0,0,0,2.84Zm22.68-.28a1.42,1.42,0,0,0,0-2.84l-14.17.18a1.42,1.42,0,0,0,0,2.84Zm22.67-.28a1.42,1.42,0,0,0,0-2.84l-14.18.18a1.42,1.42,0,0,0,0,2.83Zm22.68-.29a1.42,1.42,0,0,0,0-2.83l-14.17.18a1.42,1.42,0,1,0,0,2.83Zm22.67-.28a1.42,1.42,0,1,0,0-2.83l-14.18.17a1.42,1.42,0,0,0,0,2.84Zm22.68-.28a1.42,1.42,0,0,0,0-2.84l-14.17.18a1.42,1.42,0,1,0,0,2.83Zm22.67-.29a1.42,1.42,0,1,0,0-2.83l-14.17.18a1.42,1.42,0,1,0,0,2.83Zm22.68-.28a1.42,1.42,0,0,0,0-2.83l-14.17.17a1.42,1.42,0,1,0,0,2.84Zm22.67-.28a1.42,1.42,0,0,0,0-2.84l-14.17.18a1.42,1.42,0,0,0,0,2.84Zm22.68-.28a1.42,1.42,0,0,0,0-2.84l-14.17.18a1.42,1.42,0,0,0,0,2.83Zm22.67-.29a1.42,1.42,0,1,0,0-2.83l-14.17.18a1.42,1.42,0,1,0,0,2.83Zm22.68-.28a1.42,1.42,0,1,0,0-2.83l-14.17.17a1.42,1.42,0,0,0,0,2.84Zm22.67-.28a1.42,1.42,0,0,0,0-2.84l-14.17.18a1.42,1.42,0,1,0,0,2.83Zm22.68-.29a1.42,1.42,0,1,0,0-2.83l-14.18.18a1.42,1.42,0,0,0,0,2.83Zm22.68-.28a1.42,1.42,0,0,0,0-2.83l-14.17.17a1.42,1.42,0,0,0,0,2.84Zm22.67-.28a1.42,1.42,0,0,0,0-2.84l-14.18.18a1.42,1.42,0,0,0,0,2.84Zm22.68-.28a1.42,1.42,0,0,0,0-2.84l-14.17.18a1.42,1.42,0,1,0,0,2.83Zm22.67-.29a1.42,1.42,0,1,0,0-2.83l-14.18.18a1.42,1.42,0,0,0,0,2.83Zm22.68-.28a1.42,1.42,0,0,0,0-2.83l-14.17.17a1.42,1.42,0,1,0,0,2.84Zm22.67-.28a1.42,1.42,0,0,0,0-2.84l-14.17.18a1.42,1.42,0,1,0,0,2.83Zm22.68-.29a1.41,1.41,0,0,0,1.38-1.67,1.43,1.43,0,0,0-1.42-1.16l-14.17.18a1.42,1.42,0,0,0,0,2.83Zm22.67-.28a1.42,1.42,0,1,0,0-2.83l-14.17.17a1.42,1.42,0,0,0,0,2.84Zm22.68-.28a1.42,1.42,0,0,0,0-2.84l-14.18.18a1.42,1.42,0,0,0,0,2.83Zm22.68-.29a1.42,1.42,0,0,0,0-2.83l-14.17.18a1.42,1.42,0,1,0,0,2.83Zm22.67-.28a1.42,1.42,0,1,0,0-2.83l-14.18.17a1.42,1.42,0,0,0,0,2.84Zm22.68-.28a1.42,1.42,0,0,0,0-2.84l-14.17.18a1.42,1.42,0,1,0,0,2.83Zm22.67-.29a1.42,1.42,0,1,0,0-2.83l-14.17.18a1.42,1.42,0,1,0,0,2.83Zm22.68-.28a1.42,1.42,0,1,0,0-2.83l-14.17.17a1.42,1.42,0,0,0,0,2.84Zm22.67-.28a1.42,1.42,0,0,0,0-2.84l-14.17.18a1.42,1.42,0,1,0,0,2.83Zm22.68-.29a1.42,1.42,0,1,0,0-2.83l-14.18.18a1.42,1.42,0,0,0,0,2.83Zm22.68-.28a1.42,1.42,0,0,0,0-2.83l-14.17.17a1.42,1.42,0,0,0,0,2.84Zm22.67-.28a1.42,1.42,0,0,0,0-2.84l-14.18.18a1.42,1.42,0,0,0,0,2.83Zm22.68-.29a1.42,1.42,0,0,0,0-2.83l-14.17.18a1.41,1.41,0,0,0-1.38,1.67,1.43,1.43,0,0,0,1.42,1.16Zm22.67-.28a1.42,1.42,0,0,0,0-2.84l-14.17.18a1.42,1.42,0,0,0,0,2.84Zm22.68-.28a1.42,1.42,0,1,0,0-2.84l-14.17.18a1.42,1.42,0,0,0,0,2.83Zm22.68-.29a1.42,1.42,0,0,0,0-2.83l-14.17.17a1.42,1.42,0,0,0,0,2.84ZM1002.33,606.82a1.42,1.42,0,0,0,0,2.84l14.17-.18a1.42,1.42,0,1,0,0-2.83Z"/>
  <path class="cls-2" d="M1043.09,655.9a1.42,1.42,0,0,0,0-2.83l-14.17.15a1.42,1.42,0,1,0,0,2.83Zm22.67-.24a1.42,1.42,0,1,0,0-2.83l-14.17.15a1.42,1.42,0,0,0,0,2.83Zm22.68-.23a1.42,1.42,0,0,0,0-2.84l-14.17.15a1.44,1.44,0,0,0-1.29.85,1.43,1.43,0,0,0,1.32,2Zm22.67-.24a1.42,1.42,0,1,0,0-2.83l-14.18.14a1.42,1.42,0,0,0,0,2.84Zm22.68-.24a1.42,1.42,0,1,0,0-2.83l-14.17.15a1.42,1.42,0,1,0,0,2.83Zm22.68-.23a1.44,1.44,0,0,0,1.28-.85,1.42,1.42,0,0,0-1.31-2l-14.18.15a1.42,1.42,0,0,0,0,2.83Zm22.67-.24a1.42,1.42,0,1,0,0-2.83l-14.17.14a1.42,1.42,0,0,0,0,2.84Zm22.68-.24a1.42,1.42,0,1,0,0-2.83l-14.17.15a1.42,1.42,0,1,0,0,2.83Zm22.67-.23a1.44,1.44,0,0,0,1.29-.85,1.42,1.42,0,0,0-1.32-2l-14.17.15a1.42,1.42,0,0,0,0,2.83Zm22.68-.24a1.42,1.42,0,0,0,0-2.84l-14.17.15a1.44,1.44,0,0,0-1.29.85,1.43,1.43,0,0,0,1.32,2Zm22.67-.24a1.42,1.42,0,1,0,0-2.83l-14.18.14a1.44,1.44,0,0,0-1.28.85,1.42,1.42,0,0,0,1.31,2Zm22.68-.24a1.42,1.42,0,1,0,0-2.83l-14.17.15a1.42,1.42,0,0,0,0,2.83Zm22.68-.23a1.44,1.44,0,0,0,1.28-.85,1.42,1.42,0,0,0-1.31-2l-14.18.15a1.42,1.42,0,0,0,0,2.84Zm22.67-.24a1.42,1.42,0,1,0,0-2.84l-14.17.15a1.42,1.42,0,0,0,0,2.84Zm22.68-.24a1.42,1.42,0,0,0,0-2.83l-14.17.15a1.42,1.42,0,1,0,0,2.83Zm22.67-.24a1.42,1.42,0,1,0,0-2.83l-14.17.15a1.42,1.42,0,0,0,0,2.83Zm22.68-.23a1.42,1.42,0,0,0,0-2.84l-14.17.15a1.44,1.44,0,0,0-1.29.85,1.43,1.43,0,0,0,1.32,2Zm22.68-.24a1.42,1.42,0,0,0,0-2.83l-14.18.14a1.44,1.44,0,0,0-1.28.85,1.42,1.42,0,0,0,1.31,2Zm22.67-.24a1.42,1.42,0,1,0,0-2.83l-14.17.15a1.42,1.42,0,1,0,0,2.83Zm22.68-.23a1.44,1.44,0,0,0,1.28-.85,1.42,1.42,0,0,0-1.31-2l-14.18.15a1.42,1.42,0,0,0,0,2.83Zm22.67-.24a1.44,1.44,0,0,0,1.29-.85,1.43,1.43,0,0,0-1.32-2l-14.17.15a1.42,1.42,0,0,0,0,2.84Zm22.68-.24a1.42,1.42,0,0,0,0-2.83l-14.17.15a1.42,1.42,0,1,0,0,2.83Zm22.67-.24a1.42,1.42,0,1,0,0-2.83l-14.17.15a1.42,1.42,0,0,0,0,2.83Zm22.68-.23a1.42,1.42,0,0,0,0-2.84l-14.17.15a1.42,1.42,0,1,0,0,2.84Zm22.68-.24a1.42,1.42,0,0,0,0-2.83l-14.18.14a1.44,1.44,0,0,0-1.28.85,1.42,1.42,0,0,0,1.31,2ZM1610,650a1.42,1.42,0,0,0,0-2.83l-14.17.15a1.42,1.42,0,1,0,0,2.83Zm22.68-.23a1.44,1.44,0,0,0,1.28-.85,1.42,1.42,0,0,0-1.31-2l-14.17.15a1.42,1.42,0,1,0,0,2.83Zm22.67-.24a1.44,1.44,0,0,0,1.29-.85,1.43,1.43,0,0,0-1.32-2l-14.17.15a1.42,1.42,0,0,0,0,2.84Zm22.68-.24a1.42,1.42,0,0,0,0-2.83l-14.17.14a1.44,1.44,0,0,0-1.29.85,1.42,1.42,0,0,0,1.32,2Zm22.67-.24a1.42,1.42,0,1,0,0-2.83l-14.17.15a1.42,1.42,0,1,0,0,2.83Zm22.68-.23a1.42,1.42,0,0,0,0-2.84l-14.17.15a1.42,1.42,0,1,0,0,2.83Zm22.68-.24a1.44,1.44,0,0,0,1.28-.85,1.42,1.42,0,0,0-1.31-2l-14.18.15a1.44,1.44,0,0,0-1.28.85,1.42,1.42,0,0,0,1.31,2Zm22.67-.24a1.42,1.42,0,0,0,0-2.83l-14.17.15a1.42,1.42,0,1,0,0,2.83Zm22.68-.24a1.42,1.42,0,1,0,0-2.83l-14.17.15a1.42,1.42,0,1,0,0,2.83Zm22.67-.23a1.44,1.44,0,0,0,1.29-.85,1.43,1.43,0,0,0-1.32-2l-14.17.15a1.4,1.4,0,0,0-1.28.85,1.42,1.42,0,0,0,1.31,2Zm22.68-.24a1.42,1.42,0,0,0,0-2.83l-14.17.14a1.44,1.44,0,0,0-1.29.85,1.43,1.43,0,0,0,1.32,2Zm22.67-.24a1.42,1.42,0,1,0,0-2.83l-14.18.15a1.42,1.42,0,1,0,0,2.83Zm22.68-.23a1.42,1.42,0,0,0,0-2.84l-14.17.15a1.42,1.42,0,0,0,0,2.83Zm22.68-.24a1.44,1.44,0,0,0,1.28-.85,1.42,1.42,0,0,0-1.31-2l-14.18.15a1.44,1.44,0,0,0-1.28.85,1.42,1.42,0,0,0,1.31,2Zm22.67-.24a1.42,1.42,0,0,0,0-2.83l-14.17.14a1.42,1.42,0,0,0,0,2.84Zm22.68-.24a1.42,1.42,0,1,0,0-2.83l-14.17.15a1.42,1.42,0,1,0,0,2.83Zm22.67-.23a1.44,1.44,0,0,0,1.29-.85,1.42,1.42,0,0,0-1.32-2l-14.17.15a1.42,1.42,0,0,0,0,2.83Zm22.68-.24a1.42,1.42,0,0,0,0-2.84l-14.17.15a1.44,1.44,0,0,0-1.29.85,1.43,1.43,0,0,0,1.32,2Zm22.68-.24a1.42,1.42,0,0,0,0-2.83l-14.18.15a1.42,1.42,0,1,0,0,2.83Zm22.67-.24a1.42,1.42,0,1,0,0-2.83l-14.17.15a1.42,1.42,0,0,0,0,2.83Zm22.68-.23a1.42,1.42,0,0,0,0-2.84l-14.17.15a1.44,1.44,0,0,0-1.29.85,1.42,1.42,0,0,0,1.31,2Zm22.67-.24a1.42,1.42,0,1,0,0-2.83l-14.17.14a1.42,1.42,0,0,0,0,2.84Zm22.68-.24a1.42,1.42,0,1,0,0-2.83l-14.17.15a1.42,1.42,0,1,0,0,2.83Zm22.68-.23a1.44,1.44,0,0,0,1.28-.85,1.42,1.42,0,0,0-1.31-2l-14.18.15a1.42,1.42,0,0,0,0,2.83Zm22.67-.24a1.44,1.44,0,0,0,1.29-.85,1.43,1.43,0,0,0-1.32-2l-14.17.15a1.42,1.42,0,0,0,0,2.84Zm22.68-.24a1.42,1.42,0,0,0,0-2.83l-14.17.14a1.44,1.44,0,0,0-1.29.85,1.42,1.42,0,0,0,1.32,2Zm22.67-.24a1.42,1.42,0,1,0,0-2.83l-14.17.15a1.42,1.42,0,1,0,0,2.83Zm22.68-.23a1.42,1.42,0,0,0,0-2.84l-14.17.15a1.42,1.42,0,0,0,0,2.83Zm22.68-.24a1.44,1.44,0,0,0,1.28-.85,1.42,1.42,0,0,0-1.31-2l-14.18.15a1.44,1.44,0,0,0-1.28.85,1.42,1.42,0,0,0,1.31,2Zm22.67-.24a1.42,1.42,0,1,0,0-2.83l-14.17.14a1.42,1.42,0,0,0,0,2.84Zm22.68-.24a1.42,1.42,0,1,0,0-2.83l-14.17.15a1.42,1.42,0,1,0,0,2.83Zm22.68-.23a1.44,1.44,0,0,0,1.28-.85,1.42,1.42,0,0,0-1.31-2l-14.18.15a1.42,1.42,0,0,0,0,2.83Zm22.67-.24a1.44,1.44,0,0,0,1.29-.85,1.43,1.43,0,0,0-1.32-2l-14.17.15a1.42,1.42,0,0,0,0,2.84Zm22.68-.24a1.42,1.42,0,0,0,0-2.83l-14.17.14a1.44,1.44,0,0,0-1.29.85,1.42,1.42,0,0,0,1.32,2Zm22.67-.24a1.42,1.42,0,1,0,0-2.83l-14.18.15a1.42,1.42,0,1,0,0,2.83Zm22.68-.24a1.42,1.42,0,1,0,0-2.83l-14.17.15a1.42,1.42,0,0,0,0,2.83Zm22.68-.23a1.42,1.42,0,0,0,0-2.84l-14.17.15a1.44,1.44,0,0,0-1.29.85,1.42,1.42,0,0,0,1.32,2Zm22.67-.24a1.44,1.44,0,0,0,1.29-.85,1.42,1.42,0,0,0-1.32-2l-14.17.15a1.42,1.42,0,0,0,0,2.84ZM1006.21,653.45a1.42,1.42,0,0,0,0,2.84l14.17-.15a1.44,1.44,0,0,0,1.29-.85,1.43,1.43,0,0,0-1.32-2Z"/>
  <path class="cls-2" d="M48.41,1224.11a1.42,1.42,0,0,1,1.89-.64,1.43,1.43,0,0,1,.65,1.9s-7.87,15.72-1.46,14.86c3.14-.43,10.64.47,20.89,1.7,21.06,2.52,53.87,6.45,82.7,3.2,14.23-1.61,36.73-3.23,62.87-5.11,52.94-3.8,120.81-8.69,164.66-16.67,43.39-7.9,94.09-.43,135.11,5.61,21.27,3.13,39.93,5.88,53.5,5.88,23.13,0,40.12-.56,54.5-1,10.7-.36,20-.66,28.94-.66h52.77a152.75,152.75,0,0,0,23.11-1.92,256.23,256.23,0,0,1,29-2.67c4.89-.18,9-.37,12.61-.53,15.2-.7,21.23-1,43.13,1.76,11.44,1.43,13,2.35,13.84,2.89s.78.47,25.87.47c14.15,0,25-.85,33.38-1.51,18-1.42,25.53-2,31.35,8,8.17,14.15.47,24.17-.1,24.87l-136.25,207.3c-.17,2.17-1.42,12.33-10.59,16.76-4.91,2.38-43.24,12.82-88.22,25.07-44.61,12.15-95.76,26.09-127,35.58-16.93,5.14-52.37,15.33-95.93,27.85-122.22,35.14-308.21,88.62-321.79,98.33-6.25,4.46-17.45,10.07-29.83,16.26-24.78,12.4-54.35,27.19-56.91,39a1.42,1.42,0,1,1-2.77-.59c2.85-13.14,33.08-28.26,58.41-40.93,12.27-6.14,23.37-11.69,29.46-16,14-10,200.25-63.55,322.65-98.74,43.86-12.61,79.54-22.87,95.89-27.83,31.65-9.61,82.64-23.5,127.1-35.61,44.87-12.22,83.1-22.64,87.74-24.88,8.74-4.23,9-14.7,9-14.73a1.42,1.42,0,0,1,.23-.73L915.26,1263l.13-.18s7.35-8.76-.13-21.71c-4.92-8.52-11.91-8-28.68-6.65-8.48.67-19.37,1.52-33.6,1.52-25.86,0-25.86,0-27.33-.89-.69-.42-1.87-1.13-12.72-2.49-21.72-2.71-27.67-2.43-42.66-1.75-3.57.17-7.65.35-12.64.53a255.68,255.68,0,0,0-28.7,2.65,156.42,156.42,0,0,1-23.5,2H652.66c-9.21,0-18.33.3-28.85.65-14.54.48-31.72,1-54.59,1-13.76,0-32.52-2.77-53.91-5.92-40.82-6-91.28-13.44-134.2-5.63-44.06,8-112,12.91-165,16.72-26.12,1.88-48.6,3.49-62.76,5.09-29.16,3.29-62.16-.66-83.34-3.2-10.06-1.2-17.42-2.08-20.18-1.71-11.74,1.58-1.49-18.86-1.46-18.92"/>
  <path class="cls-2" d="M2324.49,1165.61a1.41,1.41,0,0,1-.51,2.78c-9.6-1.77-57,1.5-105.39,6.11-50.84,4.85-102.63,11.18-112.59,14.7-10.36,3.65-29.24,6.85-55.5,9.08-24,2-54.23,3.24-89.77,3.24-47.35,0-143.61,4.24-217.09,7.48-41.9,1.85-76.4,3.37-90.27,3.59-17,.27-45.11,1.53-74.34,2.84-36.16,1.61-74,3.3-94.41,3.3-22,0-88.18,2.93-142.35,5.33-37.62,1.67-69.47,3.08-76.68,3.08h-95.71c-10.87,0-22.18,2.82-32.47,5.39-8.75,2.19-16.78,4.2-23.37,4.2-9.06,0-23.14-3.83-33.58-6.66-6-1.63-10.8-2.93-12.43-2.93-2.7,0-10.57-2.9-18.33-6.39-7.39-3.33-14.77-7.24-17.58-9.74-4.32-3.84-9-7.66-10.8-9.15-1.88,1.23-6.86,4.37-15.8,9.33-5.79,3.2-12,10-18.62,17.17-6.32,6.89-12.94,14.1-19.91,19A51.48,51.48,0,0,0,948.63,1271a1.68,1.68,0,0,1-.16.33c-42.07,63.62-83.37,127.28-126.89,189.86v24.28c0,5.19,15.27,9,17.61,9.59,5.92-1.32,93.8-20.83,108-21.43,9.45-.4,25,.22,41.47.88,9.12.37,18.52.74,27.21,1,13.66.34,45.23-4.79,73.28-9.35,22-3.57,41.78-6.79,49.4-6.79s29.43,1.89,53.67,4c31.56,2.71,67,5.76,79.43,5.42,9.7-.27,30.28-2.13,52.35-4.11,28-2.53,58.52-5.28,72.23-5.28h267.51c27.61,0,103.49-4.32,171-8.17,60.18-3.43,113.7-6.49,120.6-5.75,3.33.35,11.17,1.34,21.41,2.64,32.45,4.1,89.27,11.28,107,11.28,5.07,0,17.88.81,35.13,1.9,61.64,3.89,180.3,11.38,204.68-1.73a1.42,1.42,0,0,1,1.34,2.5c-25.09,13.49-144.29,6-206.2,2-17.15-1.08-29.88-1.88-34.95-1.88-17.8,0-74.79-7.21-107.33-11.32-10.09-1.28-17.82-2.25-21.36-2.63-6.68-.71-60.09,2.34-120.14,5.76-67.59,3.85-143.57,8.19-171.14,8.19H1396.27c-13.72,0-44,2.73-72,5.25-22.12,2-42.74,3.85-52.52,4.12-12.62.35-48.14-2.7-79.73-5.42-24.17-2.07-46-3.95-53.44-3.95s-27.13,3.2-48.95,6.74c-28.16,4.58-59.86,9.73-73.8,9.38-8.81-.22-18.16-.59-27.25-1-16.4-.65-31.91-1.27-41.25-.88-14.24.6-104.64,20.72-107.77,21.42a1.32,1.32,0,0,1-.71,0c-.06,0-20.12-4.54-20.12-12.42v-24.72a1.43,1.43,0,0,1,.25-.81L846.73,1420,946,1269.88A54.84,54.84,0,0,1,965.37,1245c6.73-4.68,13.23-11.77,19.45-18.54,6.72-7.33,13.12-14.29,19.33-17.73,11.07-6.13,16-9.48,16.42-9.76a1.43,1.43,0,0,1,1.71,0s6.18,5,11.72,9.89c2.59,2.31,9.69,6,16.86,9.28,7.45,3.36,14.86,6.13,17.17,6.13,2,0,7,1.35,13.17,3,10.29,2.8,24.16,6.56,32.84,6.56,6.26,0,14.12-2,22.69-4.1,10.45-2.61,22-5.49,33.15-5.49h95.71c7.35,0,39.07-1.4,76.56-3.06,54.29-2.41,120.62-5.34,142.47-5.34,20.57,0,58.26-1.69,94.29-3.3,29.21-1.3,57.34-2.56,74.42-2.83,13.74-.23,48.26-1.75,90.18-3.59,73.6-3.24,170-7.49,217.22-7.49,35.47,0,65.61-1.21,89.53-3.24,26-2.2,44.67-5.35,54.8-8.92s62.23-10,113.26-14.84c48.58-4.63,96.3-7.9,106.17-6.08"/>
  <path class="cls-2" d="M3044.71,1261.9a1.42,1.42,0,0,1-1.9-2.1l16.75-15.16a1.38,1.38,0,0,1,.94-.37h744.67a1.42,1.42,0,0,1,0,2.83H3061Z"/>
  <path class="cls-2" d="M3043.62,1381.55a1.41,1.41,0,0,1,2.17-1.81l16.29,19.6,743.09-.33a1.42,1.42,0,0,1,0,2.83l-743.75.33a1.43,1.43,0,0,1-1.08-.51Z"/>
  <path class="cls-2" d="M3013.7,1250.53a1.41,1.41,0,1,1-1.24,2.54l-12.28-6-588.69-9.35a1.42,1.42,0,0,1-1.39-1.44,1.41,1.41,0,0,1,1.43-1.39l588.91,9.36a1.5,1.5,0,0,1,.71.14Z"/>
  <path class="cls-2" d="M3012.14,1379.59a1.42,1.42,0,1,1,1.89,2.11l-15,13.36a1.43,1.43,0,0,1-.95.36H2411.51a1.42,1.42,0,1,1,0-2.83h586Z"/>
  <path class="cls-2" d="M2402.13,707.54a1.44,1.44,0,0,0-1.36,1.18,1.42,1.42,0,0,0,1.44,1.66q7.08-.2,14.17-.41a1.42,1.42,0,0,0,.39-2.76,1.3,1.3,0,0,0-.48-.07l-14.16.4m-22.67.64a1.42,1.42,0,0,0-.34,2.79,1.86,1.86,0,0,0,.42,0l14.17-.4a1.42,1.42,0,0,0,.34-2.78,1.21,1.21,0,0,0-.42-.05Zm-22.67.63a1.42,1.42,0,0,0-.34,2.79,1.93,1.93,0,0,0,.42,0l14.17-.39a1.42,1.42,0,0,0,.5-2.73,1.46,1.46,0,0,0-.58-.11Zm-22.67.62a1.42,1.42,0,0,0-.4,2.77,1.92,1.92,0,0,0,.48.07l14.17-.39a1.42,1.42,0,0,0,.34-2.78,1.18,1.18,0,0,0-.42-.05Zm-22.66.61a1.41,1.41,0,0,0-.4,2.76,1.25,1.25,0,0,0,.47.07l14.17-.38a1.42,1.42,0,0,0,.4-2.76,1.55,1.55,0,0,0-.48-.07Zm-22.67.59a1.42,1.42,0,0,0-.35,2.78,1.47,1.47,0,0,0,.42.06l14.17-.37a1.42,1.42,0,0,0,.4-2.77,1.55,1.55,0,0,0-.48-.07Zm-22.67.58a1.42,1.42,0,0,0-.4,2.77,1.49,1.49,0,0,0,.47.07l14.17-.36a1.42,1.42,0,0,0,.43-2.76,1.69,1.69,0,0,0-.5-.08Zm-22.67.57a1.42,1.42,0,0,0,.07,2.84l14.17-.36a1.41,1.41,0,0,0,.55-2.7,1.33,1.33,0,0,0-.62-.13Zm-22.67.55a1.42,1.42,0,0,0-.36,2.78,1.54,1.54,0,0,0,.43.06l14.17-.35a1.42,1.42,0,0,0,.4-2.76,1.49,1.49,0,0,0-.47-.07Zm-22.67.54a1.42,1.42,0,0,0-1,2.36,1.4,1.4,0,0,0,1.09.47l14.17-.33a1.42,1.42,0,0,0,.4-2.77,1.48,1.48,0,0,0-.47-.06Zm-22.67.51a1.42,1.42,0,0,0-.52,2.73,1.45,1.45,0,0,0,.58.1l14.17-.31a1.42,1.42,0,0,0-.06-2.84Zm-22.67.49a1.42,1.42,0,0,0-.51,2.73,1.37,1.37,0,0,0,.57.1q7.08-.13,14.17-.3a1.42,1.42,0,1,0-.06-2.83Zm-22.67.46a1.42,1.42,0,0,0-1.38,1.61,1.41,1.41,0,0,0,1.43,1.22l14.18-.28a1.42,1.42,0,1,0-.06-2.83Zm-22.67.42a1.42,1.42,0,0,0-.32,2.8,1.55,1.55,0,0,0,.37,0l14.17-.26a1.42,1.42,0,0,0-.05-2.84Zm-22.67.38a1.42,1.42,0,0,0-.52,2.73,1.33,1.33,0,0,0,.56.11l14.17-.23a1.42,1.42,0,0,0,0-2.84Zm-22.67.32a1.42,1.42,0,0,0-1.32.94,1.41,1.41,0,0,0,1.35,1.89q7.1-.07,14.18-.19a1.42,1.42,0,0,0,0-2.83Zm-22.67.22a1.42,1.42,0,0,0-.61,2.69,1.35,1.35,0,0,0,.63.14l14.18-.12a1.42,1.42,0,0,0,.77-2.6,1.44,1.44,0,0,0-.8-.24C2048.86,715.6,2044.14,715.63,2039.42,715.67Zm-22.69.11a1.42,1.42,0,0,0-.52,2.73,1.4,1.4,0,0,0,.56.11c4.72-.08,9.44-.06,14.16-.07a1.42,1.42,0,0,0,.53-2.74,1.66,1.66,0,0,0-.54-.1C2026.19,715.73,2021.46,715.7,2016.73,715.78Zm-22.73,1a1.42,1.42,0,0,0,.2,2.83c4.7-.33,9.39-.59,14.1-.77a1.38,1.38,0,0,0,1.15-.66,1.42,1.42,0,0,0-1.25-2.17Q2001.09,716.28,1994,716.78ZM1971.36,719a1.42,1.42,0,0,0,0,2.81,1.09,1.09,0,0,0,.36,0q7-.84,14-1.47a1.42,1.42,0,0,0,.31-2.76,1.33,1.33,0,0,0-.56-.07Q1978.42,718.11,1971.36,719Zm-22.51,3.23a1.42,1.42,0,0,0-.2,2.75,1.47,1.47,0,0,0,.66.05c4.65-.77,9.31-1.49,14-2.13a1.42,1.42,0,1,0-.39-2.81Q1955.87,721,1948.85,722.18Zm-22.34,4.2a1.42,1.42,0,0,0,0,2.78,1.32,1.32,0,0,0,.56,0q6.92-1.45,13.87-2.73a1.41,1.41,0,0,0-.15-2.8,1.09,1.09,0,0,0-.36,0Q1933.46,724.93,1926.51,726.38Zm-22.15,5.11a1.42,1.42,0,0,0,.27,2.79,1.18,1.18,0,0,0,.42,0q6.85-1.72,13.75-3.28a1.41,1.41,0,0,0-.62-2.76Q1911.25,729.76,1904.36,731.49Zm-21.94,6a1.42,1.42,0,0,0,.24,2.77,1.52,1.52,0,0,0,.56,0c4.52-1.33,9.06-2.59,13.61-3.81a1.42,1.42,0,0,0,0-2.75,1.38,1.38,0,0,0-.67,0Q1889.24,735.46,1882.42,737.45Zm-21.69,6.8a1.4,1.4,0,0,0-1,1.15,1.41,1.41,0,0,0,1.85,1.53q6.7-2.23,13.46-4.32a1.42,1.42,0,0,0-.38-2.77,1.68,1.68,0,0,0-.45.06C1869.73,741.3,1865.22,742.74,1860.73,744.25Zm-21.41,7.64a1.42,1.42,0,0,0,.63,2.74,1.75,1.75,0,0,0,.38-.09q6.6-2.52,13.27-4.86a1.41,1.41,0,0,0-.49-2.75,1.32,1.32,0,0,0-.44.08Q1846,749.37,1839.32,751.89Zm-10,8.22a1.38,1.38,0,0,0,.82-.49,1.35,1.35,0,0,0,.3-1.16l2-.83a1.42,1.42,0,0,0-.53-2.73,1.4,1.4,0,0,0-.53.11c-2.72,1.1-5.52,2.22-8.19,3.44l.87,2.68Q1826.67,760.61,1829.3,760.11Zm22.29-4a1.42,1.42,0,0,0-.47-2.8c-4.66.78-9.33,1.59-14,2.44a1.42,1.42,0,0,0,0,2.79,1.48,1.48,0,0,0,.47,0Q1844.61,757.31,1851.59,756.14Zm22.37-3.57a1.42,1.42,0,0,0,0-2.8,1.19,1.19,0,0,0-.42,0c-4.68.7-9.35,1.44-14,2.19a1.42,1.42,0,0,0-.16,2.76,1.26,1.26,0,0,0,.61,0C1864.62,754,1869.3,753.27,1874,752.57Zm22.43-3.19a1.42,1.42,0,0,0,.28-2.74,1.35,1.35,0,0,0-.66-.07q-7,.95-14,1.95a1.42,1.42,0,0,0,.41,2.81C1887,750.65,1891.71,750,1896.39,749.38Zm22.48-2.81a1.42,1.42,0,0,0,.24-2.76,1.37,1.37,0,0,0-.57,0c-4.7.53-9.4,1.11-14.09,1.71a1.46,1.46,0,0,0-1,.55,1.42,1.42,0,0,0,1.31,2.26Q1911.83,747.38,1918.87,746.57Zm22.52-2.39a1.37,1.37,0,0,0,.81-.36,1.42,1.42,0,0,0-1.08-2.46q-7.06.67-14.12,1.45a1.42,1.42,0,0,0,0,2.81,1.45,1.45,0,0,0,.36,0Q1934.35,744.85,1941.39,744.18Zm22.56-1.94a1.37,1.37,0,0,0,.88-.39,1.41,1.41,0,0,0-1.09-2.43q-7.08.52-14.15,1.15a1.42,1.42,0,0,0,.26,2.83Q1956.9,742.77,1964,742.24Zm22.6-1.41a1.42,1.42,0,0,0,.27-2.8,2,2,0,0,0-.41,0c-4.72.22-9.46.52-14.17.83a1.42,1.42,0,0,0-.45,2.73,1.52,1.52,0,0,0,.63.1C1977.12,741.34,1981.84,741,1986.55,740.83Zm22.62-.82a1.42,1.42,0,0,0,.35-2.78,1.13,1.13,0,0,0-.41-.05c-4.73.09-9.47.24-14.19.43a1.45,1.45,0,0,0-1.11.61,1.42,1.42,0,0,0,1.22,2.22Q2002.1,740.16,2009.17,740Zm22.63-.09a1.42,1.42,0,0,0,.54-2.74,1.45,1.45,0,0,0-.51-.1q-7.1-.09-14.2,0a1.43,1.43,0,0,0-1.34,1,1.41,1.41,0,0,0,1.37,1.85Q2024.73,739.82,2031.8,739.92Zm22.61.71a1.49,1.49,0,0,0,.8-.2,1.42,1.42,0,0,0-.66-2.64q-7.1-.35-14.2-.53a1.4,1.4,0,0,0-1.28.75,1.41,1.41,0,0,0,1.21,2.08Q2047.35,740.29,2054.41,740.63Zm22.58,1.49a1.41,1.41,0,1,0,.23-2.82c-4.72-.39-9.43-.74-14.16-1a1.42,1.42,0,0,0-.69,2.7,1.59,1.59,0,0,0,.52.13C2067.59,741.39,2072.29,741.74,2077,742.12Zm22.52,2.25a1.42,1.42,0,0,0,.32-2.82c-4.71-.5-9.4-1-14.12-1.49a1.41,1.41,0,0,0-1.16,2.38,1.34,1.34,0,0,0,.89.44C2090.14,743.33,2094.82,743.87,2099.51,744.37Zm22.45,2.91a1.42,1.42,0,0,0,.94-2.61,1.47,1.47,0,0,0-.54-.2c-4.69-.66-9.37-1.3-14.07-1.89a1.42,1.42,0,0,0-.9,2.62,1.5,1.5,0,0,0,.55.19C2112.62,746,2117.29,746.62,2122,747.28Zm22.39,3.44a1.42,1.42,0,0,0,.45-2.8q-7-1.14-14-2.2a1.42,1.42,0,1,0-.43,2.8Q2137.37,749.59,2144.35,750.72Zm22.36,3.74a1.42,1.42,0,0,0,.74-2.72.92.92,0,0,0-.27-.08c-4.66-.78-9.32-1.58-14-2.35a1.42,1.42,0,0,0-.95,2.62,1.38,1.38,0,0,0,.48.17C2157.37,752.93,2162.05,753.67,2166.71,754.46Zm22.41,3.61a1.42,1.42,0,0,0,1-2.57,1.49,1.49,0,0,0-.6-.24q-7-1-14-2.2a1.42,1.42,0,0,0-1.08,2.53,1.44,1.44,0,0,0,.62.27Q2182.09,757,2189.12,758.07Zm22.62,2.65a1.42,1.42,0,0,0,.21-2.83c-4.67-.34-9.38-.85-14-1.46a1.42,1.42,0,0,0-.9,2.62,1.29,1.29,0,0,0,.54.19C2202.26,759.86,2207,760.38,2211.74,760.72Zm22.77.48a1.42,1.42,0,0,0,0-2.84c-4.69,0-9.46,0-14.15-.06a1.42,1.42,0,0,0-.74,2.64,1.45,1.45,0,0,0,.68.19C2225,761.23,2229.79,761.17,2234.51,761.2Zm22.67.15a1.42,1.42,0,0,0,0-2.83q-7.08,0-14.17-.11a1.42,1.42,0,1,0,0,2.84Q2250.09,761.31,2257.18,761.35Zm22.67.21a1.42,1.42,0,0,0,.51-2.75,1.63,1.63,0,0,0-.48-.09l-14.17-.13a1.42,1.42,0,0,0-.5,2.75,1.27,1.27,0,0,0,.47.09Zm22.68.23a1.42,1.42,0,0,0,0-2.84l-14.18-.14a1.42,1.42,0,0,0-.65,2.68,1.39,1.39,0,0,0,.63.15Zm22.67.24a1.42,1.42,0,0,0,0-2.84l-14.17-.15a1.4,1.4,0,0,0-1.34.93,1.42,1.42,0,0,0,1.31,1.91Zm22.68.25a1.44,1.44,0,0,0,1.31-.83,1.42,1.42,0,0,0-1.28-2l-14.17-.16a1.42,1.42,0,0,0-.46,2.76,1.25,1.25,0,0,0,.43.07Zm22.67.26a1.42,1.42,0,1,0,0-2.83l-14.18-.17a1.42,1.42,0,0,0,0,2.84Zm22.68.27a1.42,1.42,0,0,0,.56-2.73,1.56,1.56,0,0,0-.53-.1l-14.17-.17a1.42,1.42,0,1,0,0,2.83Zm22.67.27a1.42,1.42,0,0,0,.55-2.73,1.49,1.49,0,0,0-.51-.1l-14.17-.17a1.42,1.42,0,0,0-.57,2.72,1.44,1.44,0,0,0,.53.11Zm22.68.29a1.4,1.4,0,0,0,.9-.32,1.42,1.42,0,0,0-.87-2.52c-4.72,0-9.45-.09-14.17-.18a1.42,1.42,0,0,0-.54,2.74,1.45,1.45,0,0,0,.51.1C2429.13,763.27,2433.86,763.31,2438.58,763.37Zm.46-54.06a1.42,1.42,0,0,0,.39-2.77,1.48,1.48,0,0,0-.47-.06c-4.72.09-9.45.28-14.17.41a1.42,1.42,0,0,0-.39,2.77,1.55,1.55,0,0,0,.48.07C2429.59,709.59,2434.33,709.41,2439,709.31Z"/>
  <rect class="cls-2" x="2554.78" y="289.32" width="23.31" height="24.07"/>
  <rect class="cls-2" x="2602.64" y="289.32" width="23.31" height="24.07"/>
  <path class="cls-2" d="M2709.35,306.76h-23.23v30.61h23.23Zm-24.65-2.83h26.06a1.41,1.41,0,0,1,1.42,1.42v33.43a1.41,1.41,0,0,1-1.42,1.42H2684.7a1.41,1.41,0,0,1-1.41-1.42V305.35A1.41,1.41,0,0,1,2684.7,303.93Z"/>
  <path class="cls-2" d="M2670.75,325.33h9.81a1.41,1.41,0,0,1,1.42,1.42v24.07a1.42,1.42,0,0,1-1.42,1.42h-9.81a1.42,1.42,0,0,1-1.42-1.42V326.75a1.41,1.41,0,0,1,1.42-1.42m8.4,2.83h-7V349.4h7Z"/>
  <rect class="cls-2" x="2638.23" y="321.11" width="32.52" height="33.44"/>
  <path class="cls-2" d="M2484.82,393.4h-4.56v9.51h4.56Zm-6-2.83h7.4a1.42,1.42,0,0,1,1.42,1.41v12.35a1.43,1.43,0,0,1-1.42,1.42h-7.4a1.42,1.42,0,0,1-1.41-1.42V392A1.41,1.41,0,0,1,2478.84,390.57Z"/>
  <path class="cls-2" d="M2490.44,405.75h-4.2a1.43,1.43,0,0,1-1.42-1.42V392a1.42,1.42,0,0,1,1.42-1.41h4.2a1.42,1.42,0,0,1,1.42,1.41v12.35a1.43,1.43,0,0,1-1.42,1.42m-2.78-2.84H2489V393.4h-1.36Z"/>
  <path class="cls-2" d="M2494.64,405.75h-4.2a1.43,1.43,0,0,1-1.42-1.42V392a1.42,1.42,0,0,1,1.42-1.41h4.2a1.42,1.42,0,0,1,1.42,1.41v12.35a1.43,1.43,0,0,1-1.42,1.42m-2.78-2.84h1.36V393.4h-1.36Z"/>
  <path class="cls-2" d="M2484.82,452.26h-4.56v9.51h4.56Zm-6-2.84h7.4a1.43,1.43,0,0,1,1.42,1.42v12.35a1.42,1.42,0,0,1-1.42,1.41h-7.4a1.41,1.41,0,0,1-1.41-1.41V450.84A1.42,1.42,0,0,1,2478.84,449.42Z"/>
  <path class="cls-2" d="M2490.44,464.6h-4.2a1.42,1.42,0,0,1-1.42-1.41V450.84a1.43,1.43,0,0,1,1.42-1.42h4.2a1.43,1.43,0,0,1,1.42,1.42v12.35a1.42,1.42,0,0,1-1.42,1.41m-2.78-2.83H2489v-9.51h-1.36Z"/>
  <path class="cls-2" d="M2494.64,464.6h-4.2a1.42,1.42,0,0,1-1.42-1.41V450.84a1.43,1.43,0,0,1,1.42-1.42h4.2a1.43,1.43,0,0,1,1.42,1.42v12.35a1.42,1.42,0,0,1-1.42,1.41m-2.78-2.83h1.36v-9.51h-1.36Z"/>
  <path class="cls-2" d="M2484.82,291.92h-4.56v9.51h4.56Zm-6-2.83h7.4a1.42,1.42,0,0,1,1.42,1.41v12.35a1.43,1.43,0,0,1-1.42,1.42h-7.4a1.42,1.42,0,0,1-1.41-1.42V290.5A1.41,1.41,0,0,1,2478.84,289.09Z"/>
  <path class="cls-2" d="M2490.44,304.27h-4.2a1.43,1.43,0,0,1-1.42-1.42V290.5a1.42,1.42,0,0,1,1.42-1.41h4.2a1.42,1.42,0,0,1,1.42,1.41v12.35a1.43,1.43,0,0,1-1.42,1.42m-2.78-2.84H2489v-9.51h-1.36Z"/>
  <path class="cls-2" d="M2494.64,304.27h-4.2a1.43,1.43,0,0,1-1.42-1.42V290.5a1.42,1.42,0,0,1,1.42-1.41h4.2a1.42,1.42,0,0,1,1.42,1.41v12.35a1.43,1.43,0,0,1-1.42,1.42m-2.78-2.84h1.36v-9.51h-1.36Z"/>
  <path class="cls-2" d="M1591.16,835.7a1.41,1.41,0,1,1,1.32,2.5l-222,117.28a1.28,1.28,0,0,1-.49.16c-1.09.21-14.59,3.32-20.27,26.23-6.08,24.53,0,110.07,0,110.32v.08c.09,1.59,2.44,38.32,34.78,38.32,34.33,0,113-6.06,113.2-6.08a1.42,1.42,0,0,1,.21,2.83c-.23,0-79,6.08-113.41,6.08-35,0-37.51-39.3-37.6-41v0c0-.24-6.15-86.2,0-111.17,5.91-23.86,20.33-27.86,22.36-28.31Z"/>
  <path class="cls-2" d="M1522.74,1127.45a1.41,1.41,0,1,1,0-2.82l47.39-.77a1.42,1.42,0,1,1,.05,2.83Z"/>
  <path class="cls-2" d="M1817.09,1002.13c91.68-7,242.62-16.44,258-17.4l6-180L1787.32,819.9l.91,183.26ZM1587.85,1124.9a1.41,1.41,0,1,1,0-2.82c.22,0,75-.92,97.78-.92,11.6,0,28.24-.61,44.53-3.66s32-8.44,42.24-18c3.57-3.37,7.21-6.24,10.76-9,16.69-13.19,31.66-25,32.64-85.4l-28.93,1a1.42,1.42,0,0,1-1.42-1.41l-.92-186a1.41,1.41,0,0,1,1.34-1.48l296.65-15.34h.11a1.42,1.42,0,0,1,1.37,1.46L2077.83,986a1.41,1.41,0,0,1-1.33,1.43c-.47,0-161,10-257.92,17.39-1,61.87-16.44,74.12-33.71,87.76-3.48,2.75-7,5.56-10.58,8.89-10.65,10-27,15.66-43.65,18.77s-33.34,3.71-45.05,3.71C1661.75,1124,1588.06,1124.9,1587.85,1124.9Z"/>
  <path class="cls-2" d="M914.74,1198.69a1.41,1.41,0,0,1-2.58-1.15c5.13-11.54,41.74-60.87,85.54-111.56,30.1-34.85,63.63-70.4,92.7-94.84,5.76-4.84,12.58-10.7,20-17.11,35-30.07,84-72.25,131.33-100.75a1226,1226,0,0,1,119.87-62.93l1.48-67.11c-15.92.36-159.26,4-237.45,17.28-19.89,3.39-41.19,5.68-61.8,7.89s-40.65,4.37-57.74,7.46c-36.9,6.68-61.07,16.9-61.14,16.93a1.42,1.42,0,0,1-1.74-2.08c.49-.9,4.76-9.22,8.54-29.31,4.39-23.31,3-71.34,1.64-116.66-1.09-37-2.12-72.1.08-90.79,1.93-16.44,3-29,3.75-38.93,2.28-28.22,2.82-34.86,17.47-46.09,13.51-10.36,62-9.25,111.28-8.12,22.71.53,45.59,1.05,65.2.47,52-1.55,135.16-1.33,176.87-1.21,6.81,0,12.31,0,18.89,0a185.7,185.7,0,0,1,23.68,1.28c4.82.55,6.21.71,9.33-1.19,6.08-3.71,12.79-17.56,12.81-17.6a1.42,1.42,0,0,1,1.89-.65,1.47,1.47,0,0,1,.66.67l32.46,69.49a1.41,1.41,0,0,1-2.56,1.19L1394,446.42c-2.36,4.39-7.52,13.14-12.54,16.19-4,2.41-5.56,2.23-11.12,1.59a183.16,183.16,0,0,0-23.36-1.26l-18.89,0c-41.68-.11-124.79-.33-176.79,1.21-19.67.59-42.59.06-65.34-.46-48.77-1.12-96.77-2.22-109.5,7.54-13.65,10.46-14.16,16.86-16.36,44.06-.81,9.91-1.83,22.52-3.77,39-2.18,18.54-1.15,53.57-.06,90.39,1.33,45.47,2.75,93.66-1.69,117.26-2.67,14.18-5.64,22.72-7.38,27a339.57,339.57,0,0,1,58.44-15.79c17.26-3.12,37.26-5.27,57.94-7.49s41.81-4.49,61.63-7.87c82.72-14.09,238.15-17.32,239.31-17.35h.08a1.41,1.41,0,0,1,1.38,1.44l-1.53,69.44a1.41,1.41,0,0,1-.84,1.31,1216.9,1216.9,0,0,0-120.37,63.13c-47.1,28.39-96,70.48-131,100.48-7.25,6.23-13.89,11.94-20,17.12-28.93,24.32-62.35,59.76-92.39,94.53-43.63,50.51-80,99.49-85.09,110.86"/>
  <path class="cls-2" d="M1479.31,507.3a1.41,1.41,0,0,1-2.63,1l-29.81-74.85a1.41,1.41,0,0,1,2.33-1.5s15.89,16.72,40.1,15.82c17.12-.63,28.56-4.84,44.9-10.85,7.08-2.6,15.08-5.54,25-8.72a308.46,308.46,0,0,1,53.93-11.82c19.92-2.66,42.14-4,67.67-4.19,32-.2,64.27,1.06,94.89,2.25,18.22.71,35.85,1.39,52.39,1.73,42.93.89,384.34-5.64,408.64-6.1l-1.25-169.06a1.42,1.42,0,0,1,1.41-1.42h105.79a1.42,1.42,0,1,1,0,2.83H2238.28c.41,56.3,1.24,112.74,1.24,169a1.4,1.4,0,0,1-1.39,1.42c-1.05,0-365.63,7.06-410.14,6.14-16.63-.35-34.23-1-52.43-1.74-30.61-1.19-62.9-2.44-94.78-2.25-25.4.15-47.5,1.53-67.31,4.17A305.06,305.06,0,0,0,1560,430.94c-9.71,3.11-17.75,6.07-24.86,8.68-16.57,6.1-28.18,10.36-45.77,11s-31.14-7.62-37.73-12.76Z"/>
  <path class="cls-2" d="M2389.24,232.08a1.41,1.41,0,1,1,0-2.82l755.4,2.61a1.41,1.41,0,1,1,0,2.82Z"/>
  <path class="cls-2" d="M3227.31,233.38a1.41,1.41,0,1,1,0-2.82l432.78.92c.34,0,84.79-5.24,117.44,35.19s27.63,107.54,27.61,107.74l-.3,403a1.42,1.42,0,0,1-2.83,0l.31-403v-.19c0-.19,4.87-66.33-27-105.78s-114.85-34.15-115.09-34.14Z"/>
  <path class="cls-2" d="M2449.55,251a1.42,1.42,0,0,1,0-2.83l634.89,3.27c.33,0,23.23-2,27.51,4.13l.27.4c3.91,5.62,7.06,10.14,3.47,25-2,8.23-4.45,11-6,12.77a2.78,2.78,0,0,0-.78,3.37c1.72,5.8,3.11,19.39,3.12,19.43a1.42,1.42,0,0,1-2.82.29s-1.36-13.37-3-18.92c-1-3.36-.21-4.25,1.36-6,1.37-1.56,3.54-4,5.37-11.57,3.29-13.59.47-17.65-3-22.69l-.28-.4c-3.36-4.85-24.88-2.93-24.94-2.93h-.13Z"/>
  <path class="cls-2" d="M3249.26,252.51a1.41,1.41,0,0,1,0-2.82L3684,251.53c.36,0,54.82-4.62,74.74,24.07,7.06,10.17,11.82,16.51,15.14,20.92,6,8,7.41,9.88,8.85,16.24s1,18,.55,31.08c-.25,7-.51,14.34-.51,21.68,0,4.05-.07,8.17-.14,11.88-.22,12.72-.35,20.15,2.82,22a20.85,20.85,0,0,0,5,1.85c4.29,1.18,8.23,2.26,8.23,7.65,0,6.45-2.45,42.33-2.46,42.43a1.41,1.41,0,1,1-2.82-.19c0-.1,2.45-35.81,2.45-42.24,0-3.24-2.94-4-6.14-4.92a23.23,23.23,0,0,1-5.74-2.14c-4.58-2.72-4.44-10.76-4.2-24.51.06-3.4.12-7.18.12-11.84,0-7.12.27-14.66.53-21.78.46-12.89.86-24.38-.49-30.36-1.3-5.78-2.64-7.55-8.35-15.16-3.35-4.46-8.15-10.85-15.21-21-19-27.39-72-22.87-72.19-22.86h-.12Z"/>
  <path class="cls-2" d="M3783.63,466.53a1.41,1.41,0,1,1-2.09,1.9c-.1-.11-34.54-38.09-37.24-45.24-.56-1.47-1.43-4.34-2.57-8.07-4.14-13.6-11.87-38.94-20.53-49.68-4.06-5-12.06-9.25-20.9-12.58a177.6,177.6,0,0,0-37.19-9.14c-9.16-.91-392.82-7.34-393.93-7.35a1.75,1.75,0,0,1-.33-.05s-5.16-1.5-18.71,9.1a1.41,1.41,0,1,1-1.74-2.22c13.21-10.34,19.77-9.86,21-9.65,6,.1,384.85,6.44,394,7.36a180.79,180.79,0,0,1,37.91,9.31c9.25,3.48,17.68,8,22.11,13.45,9,11.15,16.82,36.84,21,50.63,1.11,3.64,2,6.44,2.52,7.89,2.51,6.66,36.59,44.24,36.68,44.34"/>
  <path class="cls-2" d="M2922.89,376.21a1.42,1.42,0,1,1-.13-2.83c.56,0,196.65-9.66,232.3-9.35s254.34,9.33,255,9.35a1.42,1.42,0,1,1-.11,2.83c-.63,0-219.35-9-254.88-9.36s-231.58,9.33-232.15,9.36"/>
  <path class="cls-2" d="M2923.93,380.65a1.42,1.42,0,1,1-.13-2.83c.56,0,196.65-9.66,232.3-9.36s254.34,9.34,255,9.36a1.42,1.42,0,1,1-.11,2.83c-.63,0-219.35-9.06-254.88-9.36s-231.58,9.33-232.15,9.36"/>
  <rect class="cls-2" x="3157.62" y="370.26" width="17.56" height="11.97"/>
  <rect class="cls-2" x="3227.31" y="240.7" width="10.73" height="7.59"/>
  <rect class="cls-2" x="3479.42" y="374.55" width="87.74" height="32.71"/>
  <rect class="cls-2" x="3648.35" y="370.56" width="27.92" height="32.71"/>
  <rect class="cls-2" x="3706.58" y="297.53" width="19.63" height="22.7"/>
  <rect class="cls-2" x="3388.77" y="266.62" width="63.06" height="44.79"/>
  <rect class="cls-2" x="3450.74" y="274.9" width="102.46" height="36.51"/>
  <path class="cls-2" d="M1509.49,113.39h23.31a1.41,1.41,0,0,1,1.42,1.42V325.86a1.41,1.41,0,0,1-1.42,1.42h-23.31a1.42,1.42,0,0,1-1.42-1.42v-211a1.42,1.42,0,0,1,1.42-1.42m21.9,2.83h-20.48V324.45h20.48Z"/>
  <path class="cls-2" d="M266,2333.86a1.42,1.42,0,0,1-2.41-1.5c.38-.6,128.2-208.36,357-313.37,76.24-35,135.09-64.27,183.91-88.56,97.14-48.31,154.62-76.91,232.38-92.46,72.22-14.44,393.47-61.39,694.06-91.23,184.66-18.33,361.54-30.21,468.15-24.14,280,16,1566.14,9.23,1569.85,9.21a1.4,1.4,0,0,1,1.42,1.4,1.42,1.42,0,0,1-1.41,1.42c-3.7,0-1290,6.75-1570-9.2-106.45-6.07-283.18,5.8-467.71,24.12-300.46,29.83-621.58,76.76-693.79,91.2-77.39,15.48-134.75,44-231.67,92.22-48.73,24.24-107.46,53.46-184,88.59-227.95,104.65-355.34,311.7-355.71,312.3"/>
  <path class="cls-2" d="M2431,1432.22a1.41,1.41,0,0,1,0-2.82l1316.46.29a1.41,1.41,0,1,1,0,2.82Z"/>
  <path class="cls-2" d="M650.84,2008a1.41,1.41,0,1,1-.68-2.74c.48-.12,169.06-42.45,209-50.74C933.65,1939,975,1925.09,1010,1913.29c60.93-20.56,102.66-34.64,266-39.16a1.42,1.42,0,0,1,.08,2.83c-162.89,4.5-204.46,18.53-265.16,39-35.06,11.83-76.5,25.81-151.19,41.34-39.76,8.27-208.36,50.6-208.85,50.72"/>
  <path class="cls-2" d="M1270.36,1915.85a1.41,1.41,0,0,1,1,2.63c-3,1.14-28.07-.38-61.82-2.41-62.58-3.78-155-9.35-188.13-3.66a1.42,1.42,0,0,1-1.63-1.16,1.4,1.4,0,0,1,1.15-1.63c33.41-5.75,126.06-.16,188.78,3.63,33.4,2,58.26,3.51,60.64,2.6"/>
  <path class="cls-2" d="M851.18,1959a1.42,1.42,0,0,1-1.55-1.27,1.41,1.41,0,0,1,1.27-1.54c.38,0,130.76-13.46,206.71,5.57,16.77,4.21,35.3,12,56.83,21,32,13.36,70.54,29.5,119.62,40.79,25.22,5.81,55,9.93,83.45,12.82,47.81,4.86,91.82,6.23,104.24,6.25,44.07,0,1758.12,90.69,1763.06,91h0c.32,0,112.09,7.34,151.63-12.74a1.42,1.42,0,1,1,1.27,2.53c-40.23,20.42-152.75,13.05-153.08,13-5.53-.29-1719-90.9-1762.89-91-12.47,0-56.63-1.39-104.51-6.26-28.57-2.9-58.48-7-83.82-12.87-49.31-11.35-88-27.54-120.07-40.94-21.42-9-39.85-16.66-56.42-20.81-75.49-18.92-205.38-5.55-205.75-5.51"/>
  <path class="cls-2" d="M1057.28,1964.55a1.42,1.42,0,0,1,0-2.83c.36,0,122.31-.53,213.61,0a1.42,1.42,0,0,1,0,2.83c-91.3-.54-213.23,0-213.58,0"/>
  <path class="cls-2" d="M1423.59,2042.56a1.41,1.41,0,0,1,0,2.82c-.76,0-263.75-.49-465.34-4.26-117.58-2.19-201.27-.75-279.67,21.49S527,2127.89,430.37,2208.92a1.42,1.42,0,0,1-1.82-2.17c97-81.3,170.49-124.51,249.26-146.86s162.64-23.79,280.48-21.59c201.59,3.77,464.54,4.26,465.3,4.26"/>
  <path class="cls-2" d="M407.12,2108.69a1.41,1.41,0,1,1-2.17-1.81c4.4-5.3,11.67-15.11,21.43-28.28,61.07-82.41,219.37-296,392.12-370.72,13.52-5.85,27.73-12.67,42.92-20,61.34-29.46,138.82-66.68,254.81-79.87,35.26-4,109.28-6,173.25-7.72,35-.94,67-1.8,88-2.87,457-23.27,1040.88-17,1042.58-17a1.41,1.41,0,1,1,0,2.82c-1.69,0-585.42-6.25-1042.4,17-21,1.07-53,1.93-88.12,2.87-63.89,1.72-137.8,3.7-173,7.71-115.53,13.14-192.76,50.24-253.9,79.6-15.21,7.31-29.43,14.14-43,20-172,74.39-330,287.58-391,369.82-9.76,13.17-17,23-21.53,28.4"/>
  <path class="cls-2" d="M572.61,1838.15a1.41,1.41,0,1,1-2.26-1.69C675.68,1695.86,777,1614.23,901.6,1567.17s272.34-59.47,470.75-61.71c328.83-3.71,679.41-6.15,680.42-6.16a1.41,1.41,0,1,1,0,2.82c-1,0-351.57,2.45-680.42,6.16-198.09,2.24-345.59,14.65-469.77,61.54s-225,128.2-330,268.33"/>
  <path class="cls-2" d="M2420.05,1513.65a1.42,1.42,0,1,1,.07,2.83l-336.35,10.46c-3.81.08-992.85,21-1085.71,38.63-48.95,9.29-120.18,34.61-184.82,65.15-57.87,27.35-110.39,58.86-136.8,86.78a1.41,1.41,0,1,1-2.05-1.93c26.67-28.2,79.51-59.93,137.64-87.4,64.84-30.64,136.33-56,185.51-65.38,93.07-17.68,1082.44-38.6,1086.17-38.68Z"/>
  <path class="cls-2" d="M1756.86,1587.4a1.43,1.43,0,0,1-1.51-1.32,1.41,1.41,0,0,1,1.32-1.5c.35,0,120-8.3,162.77-24.79a561.49,561.49,0,0,1,177.16-36.15,1.41,1.41,0,0,1,.1,2.82,558.82,558.82,0,0,0-176.24,36c-43.16,16.64-163.25,25-163.6,25"/>
  <path class="cls-2" d="M1345.57,1601.53a1.41,1.41,0,1,1,.25-2.81c1.06.09,367.17,33.69,435.13,39.82,41.68,3.77,234.31,14.77,403.13,20.79,106.29,3.8,203.13,5.62,246.85,2.42a1.42,1.42,0,0,1,.2,2.83c-43.8,3.2-140.74,1.38-247.14-2.42-168.87-6-361.59-17-403.3-20.8-68-6.14-434.07-39.73-435.12-39.83"/>
  <path class="cls-2" d="M1751.23,1638.68a1.41,1.41,0,1,1,.47-2.79c.4.07,140,23.45,221.64,42.37,43.89,10.17,97.43,21.8,141.28,30.58,37.46,7.5,67.75,12.89,78.67,13.46a1.41,1.41,0,1,1-.14,2.82c-11.11-.58-41.53-6-79.09-13.5-43.76-8.76-97.34-20.41-141.36-30.61-81.55-18.89-221.06-42.26-221.47-42.33"/>
  <path class="cls-2" d="M1616.11,1761.65a1.42,1.42,0,0,1-.09-2.83c2-.06,696-23.29,795.77-2.7,99.45,20.53,339.84,20.53,340.54,20.53a1.41,1.41,0,0,1,0,2.82c-.7,0-241.38,0-341.1-20.58-99.43-20.52-793.12,2.69-795.12,2.76"/>
  <path class="cls-2" d="M1276.05,1804a1.42,1.42,0,1,1-.09-2.83c.31,0,106.82-3.43,160.24-2.2,22.62.52,248.47,9.82,503.92,20.35,348.92,14.38,753.07,31,769.84,30.68,16.45-.34,79.45-11.93,142.47-26.6,48-11.18,96-24.16,123.34-35.31,32.64-13.33,85.35-27.44,139.38-38,51.09-10,103.41-16.85,141.09-16.88a1.41,1.41,0,1,1,0,2.82c-37.47,0-89.59,6.87-140.55,16.84-53.86,10.55-106.38,24.6-138.86,37.86-27.47,11.22-75.61,24.23-123.75,35.45-63.17,14.7-126.44,26.32-143.06,26.67-16.88.35-421.07-16.31-770-30.69-255.49-10.52-481.37-19.83-503.87-20.35-53.33-1.23-159.79,2.2-160.09,2.21"/>
  <path class="cls-2" d="M3025.12,1734.61a1.42,1.42,0,0,1-1.42,1.41,1.4,1.4,0,0,1-1.4-1.42l3.13-577.64a1.42,1.42,0,0,1,2.83,0Z"/>
  <path class="cls-2" d="M3566,2380.14a1.42,1.42,0,0,1,0,2.84H3235.53a1.42,1.42,0,0,1,0-2.84Z"/>
  <path class="cls-2" d="M2249.38,2394.34a1.42,1.42,0,1,1,0,2.83H2141.74a1.42,1.42,0,1,1,0-2.83Z"/>
  <path class="cls-2" d="M1842.4,2400.49a1.42,1.42,0,0,1,0-2.83l298-3.3,1.83-180.28c0-.16,1.82-54.85,56.81-52.35,53.59,2.45,1119.51,23,1122.58,23a1.42,1.42,0,1,1,0,2.83c-3.07-.06-1069.12-20.6-1122.65-23-52.14-2.38-53.86,49.49-53.87,49.64l-1.84,181.57a1.41,1.41,0,0,1-1.4,1.4Z"/>
  <path class="cls-2" d="M3335.79,2381a1.41,1.41,0,1,1-2.82,0l3.16-302.83a1.41,1.41,0,1,1,2.82,0Z"/>
  <path class="cls-2" d="M2199.68,2162a1.41,1.41,0,0,1,.43,1.94,1.42,1.42,0,0,1-2,.44l-116-74.06-203-1.89a1.41,1.41,0,1,1,0-2.82l203.46,1.89a1.45,1.45,0,0,1,.75.22Z"/>
  <path class="cls-2" d="M1000.83,578.84a1.42,1.42,0,0,0,2.84,0c0-1.89,0-3.78,0-5.67a1.42,1.42,0,1,0-2.83,0v5.67m.19,19.86a1.42,1.42,0,1,0,2.83,0c0-1.89-.05-3.78-.08-5.66a1.42,1.42,0,1,0-2.83,0C1001,594.92,1001,596.81,1001,598.7Zm.45,19.86a1.42,1.42,0,1,0,2.83-.08c-.06-1.89-.11-3.78-.16-5.66a1.42,1.42,0,0,0-2.78-.36,1.24,1.24,0,0,0-.05.43C1001.36,614.78,1001.41,616.67,1001.47,618.56Zm.73,19.85a1.42,1.42,0,0,0,2.77.37,1.4,1.4,0,0,0,.06-.5l-.24-5.65a1.4,1.4,0,0,0-.56-1.08,1.42,1.42,0,0,0-2.27,1.19Zm1,19.83a1.42,1.42,0,0,0,2.8.26,1.49,1.49,0,0,0,0-.42l-.33-5.66a1.42,1.42,0,0,0-2.83.16C1003,654.47,1003.13,656.36,1003.24,658.24Zm1.37,19.83a1.42,1.42,0,0,0,2.83-.22c-.15-1.88-.29-3.77-.43-5.65a1.42,1.42,0,0,0-2.71-.47,1.46,1.46,0,0,0-.11.68Q1004.39,675.23,1004.61,678.07Zm1.71,19.79a1.42,1.42,0,0,0,2.82-.27q-.27-2.82-.52-5.64a1.42,1.42,0,0,0-2.83.26C1006,694.09,1006.14,696,1006.32,697.86Zm2.06,19.76a1.42,1.42,0,0,0,2.82-.32l-.63-5.62a1.42,1.42,0,0,0-2.82,0,2.8,2.8,0,0,0,0,.29Zm2.44,19.72a1.42,1.42,0,0,0,2.75.28,1.46,1.46,0,0,0,.06-.66q-.37-2.81-.73-5.61a1.42,1.42,0,0,0-2.78-.16,1.31,1.31,0,0,0,0,.52C1010.33,733.59,1010.57,735.46,1010.82,737.34Zm2.84,19.67a1.42,1.42,0,1,0,2.8-.44q-.44-2.79-.85-5.59a1.4,1.4,0,0,0-1.08-1.17,1.42,1.42,0,0,0-1.72,1.58C1013.09,753.26,1013.37,755.14,1013.66,757Zm3.26,19.6a1.42,1.42,0,0,0,2.8-.05,1.29,1.29,0,0,0,0-.44q-.5-2.79-1-5.58a1.33,1.33,0,0,0-.27-.62A1.42,1.42,0,0,0,1016,771l.48,2.79Zm3.71,19.53a1.42,1.42,0,0,0,2.69.27,1.4,1.4,0,0,0,.09-.83l-.53-2.65-.57-2.9a1.42,1.42,0,0,0-2.77-.08,1.44,1.44,0,0,0,0,.62l.58,2.91Zm4.17,19.43a1.42,1.42,0,0,0,2.75.06,1.34,1.34,0,0,0,0-.69l-.52-2.29-.72-3.23a1.42,1.42,0,0,0-2.78.09,1.3,1.3,0,0,0,0,.52l.72,3.25Zm4.68,19.32a1.42,1.42,0,0,0,2.78-.18,1.52,1.52,0,0,0,0-.52l-.45-1.76-.56-2.2-.38-1.52a1.41,1.41,0,0,0-2.78.21,1.25,1.25,0,0,0,0,.47l.94,3.73Zm5.2,19.19a1.42,1.42,0,0,0,2.78-.27,1.45,1.45,0,0,0,0-.51l-.94-3.32-.6-2.12a1.42,1.42,0,0,0-2.73.76l.6,2.13Zm5.77,19a1.42,1.42,0,1,0,2.7-.86l-.83-2.6-.87-2.79a1.42,1.42,0,0,0-2.77.38,1.68,1.68,0,0,0,.06.45l.88,2.81Zm6.37,18.84a1.42,1.42,0,0,0,2.75-.54,1.35,1.35,0,0,0-.08-.4l-.66-1.86-.75-2.15-.46-1.33a1.42,1.42,0,0,0-2.76.48,1.14,1.14,0,0,0,.08.44l.46,1.34.76,2.17Zm7,18.62a1.41,1.41,0,0,0,2.73-.49,1.49,1.49,0,0,0-.1-.55l-.43-1.09-.83-2.13-.79-2a1.42,1.42,0,0,0-2.75.53,1.64,1.64,0,0,0,.1.49l.79,2.05.84,2.14Zm7.67,18.36a1.41,1.41,0,0,0,2.59-1.14l-1.07-2.46-1.18-2.73a1.42,1.42,0,0,0-2.72.62,1.4,1.4,0,0,0,.11.49l1.19,2.75Zm8.38,18a1.42,1.42,0,0,0,2.55-1.24l-.85-1.74-1-2-.62-1.3a1.42,1.42,0,0,0-2.66.91,1.18,1.18,0,0,0,.1.3l.63,1.31,1,2.07Zm9.14,17.68a1.41,1.41,0,0,0,2.49-1.34l-.59-1.08-1.07-2-1-1.91a1.42,1.42,0,1,0-2.5,1.33l1,1.91,1.08,2Zm9.92,17.26a1.42,1.42,0,0,0,2.61-1,1.54,1.54,0,0,0-.18-.48L1089.9,978l-1.44-2.42A1.42,1.42,0,1,0,1086,977l1.45,2.45Zm10.74,16.76a1.42,1.42,0,0,0,2.58-1,1.5,1.5,0,0,0-.22-.54l-1.24-1.84-1.25-1.88-.65-1a1.42,1.42,0,0,0-2.53,1.23,1.37,1.37,0,0,0,.16.32l.66,1,1.26,1.9Zm11.6,16.19a1.42,1.42,0,1,0,2.27-1.7l-1-1.29-1.35-1.81-1-1.43a1.42,1.42,0,0,0-2.5,1.25,1.28,1.28,0,0,0,.21.42l1.07,1.45,1.36,1.83Zm12.47,15.54a1.42,1.42,0,0,0,2.44-1.32,1.39,1.39,0,0,0-.27-.51l-.67-.78-1.45-1.73-1.51-1.82a1.42,1.42,0,0,0-2.2,1.79l1.53,1.84,1.47,1.75Zm13.35,14.79a1.42,1.42,0,0,0,2.33-1.53,1.52,1.52,0,0,0-.28-.43l-1.85-1.94-1.54-1.65-.48-.51a1.42,1.42,0,0,0-2.37,1.45,1.67,1.67,0,0,0,.28.46l.49.53,1.56,1.67ZM1003.77,553.34a1.42,1.42,0,0,0-2.84,0l0,5.68a1.42,1.42,0,1,0,2.83,0Z"/>
  <path class="cls-2" d="M1014.16,578.69a1.42,1.42,0,1,0,2.83,0c0-1.88,0-3.78.06-5.66a1.42,1.42,0,1,0-2.83,0c0,1.89-.06,3.79-.06,5.67m-.14,19.86a1.42,1.42,0,0,0,2.75.48,1.28,1.28,0,0,0,.09-.48c0-1.88,0-3.77,0-5.66a1.42,1.42,0,0,0-2.77-.44,1.54,1.54,0,0,0-.07.42C1014,594.76,1014,596.65,1014,598.55Zm.07,19.85a1.42,1.42,0,0,0,2.7.61,1.52,1.52,0,0,0,.14-.63c0-1.89,0-3.78,0-5.67a1.42,1.42,0,1,0-2.83,0C1014.06,614.62,1014.08,616.51,1014.09,618.4Zm.35,19.87a1.42,1.42,0,0,0,2.76.4,1.53,1.53,0,0,0,.07-.47c0-1.89-.09-3.78-.13-5.67a1.42,1.42,0,1,0-2.83.06C1014.35,634.48,1014.39,636.37,1014.44,638.27Zm.65,19.85a1.43,1.43,0,0,0,2.55.81,1.47,1.47,0,0,0,.29-.93c-.08-1.88-.16-3.77-.23-5.65a1.39,1.39,0,0,0-.88-1.27,1.43,1.43,0,0,0-2,1.37C1014.94,654.34,1015,656.23,1015.09,658.12Zm1,19.84a1.42,1.42,0,0,0,2.83-.17c-.12-1.88-.22-3.76-.33-5.65a1.42,1.42,0,0,0-2.79-.25,1.39,1.39,0,0,0,0,.41Zm1.4,19.82a1.42,1.42,0,0,0,2.68.54,1.55,1.55,0,0,0,.15-.76q-.23-2.82-.44-5.65a1.42,1.42,0,1,0-2.83.22C1017.21,694,1017.36,695.9,1017.51,697.78Zm1.82,19.8a1.42,1.42,0,0,0,2.82-.29q-.28-2.82-.56-5.64a1.42,1.42,0,0,0-2.76-.3,1.37,1.37,0,0,0-.06.57C1019,713.81,1019.14,715.69,1019.33,717.58Zm2.26,19.74a1.42,1.42,0,0,0,2.82-.35q-.36-2.82-.69-5.62a1.42,1.42,0,0,0-2.82.33Zm2.74,19.69a1.42,1.42,0,0,0,2.8-.42c-.28-1.87-.56-3.73-.83-5.6a1.42,1.42,0,0,0-2.8,0,1.7,1.7,0,0,0,0,.45Q1023.91,754.2,1024.33,757Zm3.23,19.61a1.42,1.42,0,0,0,2.8-.08,1.13,1.13,0,0,0,0-.41l-.44-2.49-.53-3.09a1.42,1.42,0,0,0-2.8.48l.54,3.1Zm3.75,19.52a1.42,1.42,0,0,0,2.79-.07,1.34,1.34,0,0,0,0-.49l-.65-3.2L1033,790a1.43,1.43,0,0,0-.87-1,1.41,1.41,0,0,0-1.91,1.59l.47,2.36Zm4.3,19.42a1.42,1.42,0,0,0,2.7.2,1.45,1.45,0,0,0,.06-.85l-.35-1.5-.49-2.11-.44-1.9a1.42,1.42,0,0,0-2.76,0,1.38,1.38,0,0,0,0,.64l.44,1.91Zm4.87,19.27a1.45,1.45,0,0,0,.49.75,1.42,1.42,0,0,0,2.25-1.48l-.43-1.63-.57-2.12-.44-1.72a1.42,1.42,0,0,0-2.75.71l.45,1.73.57,2.13ZM1046,854a1.42,1.42,0,0,0,2.72-.81l-.47-1.53-.63-2.13-.52-1.76a1.42,1.42,0,1,0-2.72.79l.52,1.78.64,2.13Zm6.08,18.94a1.42,1.42,0,0,0,2.71-.08,1.38,1.38,0,0,0,0-.83l-.41-1.2-.71-2.13-.67-2a1.42,1.42,0,0,0-2.76.28,1.52,1.52,0,0,0,.06.6l.68,2,.72,2.14Zm6.73,18.72a1.42,1.42,0,0,0,2.73-.33,1.4,1.4,0,0,0-.08-.67l-1.05-2.8-.93-2.5a1.42,1.42,0,0,0-2.75.47,1.39,1.39,0,0,0,.09.5l.93,2.52Zm7.37,18.47a1.42,1.42,0,1,0,2.62-1.09l-.87-2.07-.87-2.12-.42-1a1.43,1.43,0,0,0-1.54-.87,1.42,1.42,0,0,0-1.09,1.93l.43,1,.88,2.13Zm8.06,18.19a1.42,1.42,0,1,0,2.57-1.19l-.54-1.17-1-2.1-.85-1.87a1.42,1.42,0,0,0-2.71.62,1.48,1.48,0,0,0,.13.55l.85,1.88,1,2.11Zm8.74,17.88a1.42,1.42,0,0,0,2.67-.82,1.29,1.29,0,0,0-.15-.47l-1.11-2.18-1.44-2.86a1.42,1.42,0,0,0-2.54,1.26l1.45,2.88Zm9.44,17.52a1.42,1.42,0,0,0,2.62-1,1.28,1.28,0,0,0-.15-.4l-.53-.93-1.15-2.07-1.08-1.94a1.41,1.41,0,0,0-2.63.93,1.3,1.3,0,0,0,.15.43l1.08,2,1.16,2.07Zm10.13,17.12a1.42,1.42,0,0,0,2.6-1,1.46,1.46,0,0,0-.18-.45l-1-1.56-1.24-2-.74-1.22a1.42,1.42,0,0,0-2.61,1,1.22,1.22,0,0,0,.18.48l.74,1.24,1.26,2.05Zm10.84,16.69a1.42,1.42,0,1,0,2.35-1.59l-1.34-2-1.34-2-.47-.7a1.42,1.42,0,0,0-2.54,1.18,1.84,1.84,0,0,0,.17.38l.48.71,1.35,2Zm11.54,16.22a1.42,1.42,0,1,0,2.27-1.69l-1.61-2.18-1.73-2.37a1.42,1.42,0,0,0-2.3,1.65l1.75,2.39Zm12.22,15.71a1.42,1.42,0,1,0,2.2-1.79l-1.75-2.17-1.78-2.23a1.42,1.42,0,0,0-2.53.69,1.44,1.44,0,0,0,.3,1.06l1.8,2.26Zm-119.81-476.2a1.42,1.42,0,0,0-2.71-.6,1.44,1.44,0,0,0-.13.57l-.06,5.67a1.42,1.42,0,1,0,2.84,0Z"/>
  <path class="cls-2" d="M1029.71,578.54a1.42,1.42,0,0,0,2.84,0c0-1.89,0-3.78.07-5.66a1.42,1.42,0,0,0-2.65-.73,1.33,1.33,0,0,0-.18.68c0,1.9-.06,3.79-.08,5.68m-.12,19.85a1.42,1.42,0,1,0,2.83,0c0-1.89,0-3.78,0-5.67a1.42,1.42,0,0,0-2.77-.43,1.48,1.48,0,0,0-.07.42C1029.59,594.61,1029.59,596.5,1029.59,598.39Zm.11,19.86a1.42,1.42,0,0,0,2.84,0c0-1.89,0-3.77-.06-5.66a1.42,1.42,0,1,0-2.84,0Zm.38,19.86a1.42,1.42,0,0,0,2.71.56,1.37,1.37,0,0,0,.13-.63c-.05-1.89-.1-3.77-.14-5.66A1.42,1.42,0,0,0,1030,632a1.13,1.13,0,0,0,0,.41C1030,634.33,1030,636.22,1030.08,638.11Zm.68,19.86a1.42,1.42,0,0,0,2.54.8,1.39,1.39,0,0,0,.29-.92c-.07-1.89-.15-3.77-.22-5.66a1.42,1.42,0,1,0-2.83.1C1030.61,654.18,1030.68,656.08,1030.76,658Zm1,19.84a1.42,1.42,0,0,0,2.8.26,1.53,1.53,0,0,0,0-.43c-.11-1.88-.21-3.77-.31-5.65a1.42,1.42,0,0,0-2.78-.31,1.44,1.44,0,0,0,0,.46C1031.54,674,1031.64,675.92,1031.75,677.81Zm1.34,19.82a1.41,1.41,0,0,0,2.45.85,1.4,1.4,0,0,0,.38-1.06q-.23-2.83-.42-5.65a1.42,1.42,0,0,0-2.73-.42,1.45,1.45,0,0,0-.1.62C1032.81,693.86,1032.94,695.74,1033.09,697.63Zm1.69,19.8a1.42,1.42,0,0,0,2.83-.27q-.27-2.82-.53-5.64a1.41,1.41,0,0,0-1.23-1.28,1.43,1.43,0,0,0-1.59,1.53C1034.43,713.66,1034.6,715.54,1034.78,717.43Zm2.09,19.76a1.4,1.4,0,0,0,1.1,1.22,1.42,1.42,0,0,0,1.71-1.55c-.21-1.87-.4-3.75-.63-5.62a1.42,1.42,0,0,0-2.82.3C1036.45,733.42,1036.65,735.31,1036.87,737.19Zm2.49,19.71a1.45,1.45,0,0,0,.26.64,1.42,1.42,0,0,0,2.55-1q-.39-2.81-.75-5.61a1.42,1.42,0,0,0-2.77-.21,1.37,1.37,0,0,0,0,.57Q1039,754.09,1039.36,756.9Zm2.94,19.66a1.42,1.42,0,0,0,2.74.22,1.28,1.28,0,0,0,.06-.67c-.3-1.86-.6-3.72-.88-5.59a1.42,1.42,0,1,0-2.81.43Q1041.85,773.76,1042.3,776.56Zm3.41,19.58a1.41,1.41,0,1,0,2.78-.51l-.68-3.72-.34-1.85a1.42,1.42,0,0,0-2.78,0,1.69,1.69,0,0,0,0,.55Q1045.19,793.35,1045.71,796.14Zm3.9,19.49a1.42,1.42,0,0,0,2.79,0,1.46,1.46,0,0,0,0-.55l-.42-1.95-.75-3.59a1.42,1.42,0,0,0-2.8.13,1.71,1.71,0,0,0,0,.45l.75,3.6Zm4.45,19.38a1.42,1.42,0,0,0,2.79-.23,1.6,1.6,0,0,0,0-.44l-.54-2.19-.78-3.31a1.42,1.42,0,0,0-2.7-.2,1.45,1.45,0,0,0-.06.85l.79,3.32Zm5,19.24a1.42,1.42,0,0,0,2.78-.25,1.45,1.45,0,0,0,0-.51l-.65-2.36-.84-3.09a1.42,1.42,0,1,0-2.74.73l.84,3.1Zm5.64,19.07a1.42,1.42,0,0,0,2.77-.4,1.3,1.3,0,0,0-.06-.44l-.79-2.52-.88-2.89a1.39,1.39,0,0,0-.36-.59,1.42,1.42,0,0,0-2.36,1.41l.89,2.91Zm6.31,18.87a1.42,1.42,0,0,0,2.75-.49,1.16,1.16,0,0,0-.08-.45l-.93-2.66-.93-2.68a1.42,1.42,0,0,0-2.7,0,1.4,1.4,0,0,0,0,.88l.93,2.7Zm7,18.62a1.42,1.42,0,0,0,2.74-.54,1.49,1.49,0,0,0-.1-.51l-1.12-2.82-1-2.44a1.42,1.42,0,0,0-2.74.58,1.64,1.64,0,0,0,.09.44l1,2.45Zm7.78,18.32a1.41,1.41,0,1,0,2.58-1.16l-.47-1-.87-2-.94-2.14a1.42,1.42,0,0,0-2.72.67,1.74,1.74,0,0,0,.11.45l1,2.16.89,2Zm8.57,18a1.42,1.42,0,0,0,2.68-.79,1.33,1.33,0,0,0-.14-.48l-.68-1.34-1-1.93-.88-1.79a1.42,1.42,0,1,0-2.55,1.24l.89,1.81,1,1.94Zm9.44,17.53a1.38,1.38,0,0,0,1.19.72,1.41,1.41,0,0,0,1.27-2.11l-1-1.68-1-1.87-.76-1.38a1.42,1.42,0,0,0-2.63,1,1.82,1.82,0,0,0,.14.39l.78,1.39,1.05,1.89Zm10.33,17a1.42,1.42,0,0,0,2.57-1.1,1.36,1.36,0,0,0-.18-.43l-1.31-2-1.14-1.81-.57-.92a1.42,1.42,0,0,0-2.54,1.24,1.19,1.19,0,0,0,.13.25l.58.94,1.15,1.82Zm11.28,16.43a1.42,1.42,0,0,0,2.5-1.24,1.32,1.32,0,0,0-.21-.43l-.5-.69L1126,994l-1.54-2.16a1.42,1.42,0,0,0-2.46,1.37,1.23,1.23,0,0,0,.14.25l1.56,2.2,1.25,1.74Zm12.24,15.72a1.42,1.42,0,0,0,2.46-1.26,1.4,1.4,0,0,0-.28-.54l-.92-1.12-1.35-1.65-1.3-1.61a1.41,1.41,0,0,0-2.46,1.28,1.34,1.34,0,0,0,.25.49l1.31,1.63,1.36,1.66Zm13.21,14.91a1.44,1.44,0,0,0,.79.43,1.41,1.41,0,0,0,1.28-2.36l-1.4-1.49-1.45-1.56-1-1.09a1.42,1.42,0,0,0-2.35,1.53,1.34,1.34,0,0,0,.25.37l1,1.11,1.46,1.57ZM1033,553.08a1.57,1.57,0,0,0-.22-.79,1.42,1.42,0,0,0-2.62.73l-.11,5.67a1.42,1.42,0,1,0,2.83,0Z"/>
  <path class="cls-2" d="M158.57,1665.05a1.41,1.41,0,1,1,2.82,0l11.05,663.13,45.89,37.11a1.41,1.41,0,0,1-1.78,2.2l-46.4-37.53a1.39,1.39,0,0,1-.52-1.08Z"/>
  <path class="cls-2" d="M2052.87,1502.12a1.41,1.41,0,0,1-.18-2.82c70.54-4.52,126.11,2.91,174.7,9.4,35,4.68,66.37,8.87,97,7.73a1.42,1.42,0,1,1,.1,2.83c-30.9,1.14-62.37-3.07-97.5-7.76-48.45-6.47-103.87-13.88-174.15-9.38"/>
  <path class="cls-3" d="M2657.37,789.09c40.9.87,81.82,0,122.73,0l130.05,2c3.19,0,6.82,1.93,10.46,4.81H2915V826h16.41v18.12h-9.56v12.13l-3.67,2H2780.1v38.47H2652.24c-4.37,0-7.71.34-7.71-10.88V800.25c0-7.32,7.55-11.28,12.84-11.16"/>
  <path class="cls-2" d="M2867.61,784.5a1.41,1.41,0,0,1-1.41-1.41,1.39,1.39,0,0,1,1.4-1.41l176.77-1V768.18a1.41,1.41,0,0,1,1.42-1.41h.17l200.5,7a1.43,1.43,0,0,1,1.31,1l4,12.93h160.44V775.15a1.42,1.42,0,0,1,1.41-1.42h199.52V750.61a1.43,1.43,0,0,1,1.42-1.42H3640a1.42,1.42,0,1,1,0,2.84h-24v23.12a1.43,1.43,0,0,1-1.42,1.42H3415v12.52a1.41,1.41,0,0,1-1.42,1.41H3250.71a1.42,1.42,0,0,1-1.35-1l-4-13-198.16-6.88v12.47h0a1.41,1.41,0,0,1-1.41,1.41Z"/>
  <path class="cls-2" d="M3739.58,817.82a1.41,1.41,0,1,1,2.82-.13l1.23,26.7a1.42,1.42,0,0,1-1.36,1.47l-752.4,6.45a1.42,1.42,0,0,1,0-2.83l750.89-6.43Z"/>
  <path class="cls-2" d="M1879.67,2118.78a1.41,1.41,0,1,1,0-2.82l207.21,2.82a1.51,1.51,0,0,1,.48.09l109.9,41.31a1.41,1.41,0,1,1-1,2.64l-109.68-41.22Z"/>
  <path class="cls-2" d="M2471.91,1052.79a1.41,1.41,0,0,1,2.14,1.85c-.08.09-26.69,30.66-33.36,57.33s-1.94,124.42-1.92,124.7a1.42,1.42,0,0,1-2.83.13c0-.28-4.79-98.32,2-125.51s33.89-58.41,34-58.5"/>
  <path class="cls-3" d="M788,1422.34C576,1448.58,181.83,1527.64,0,1669.56V1285.4l892.33-4.46Z"/>
  <rect class="cls-5" x="2411.51" y="1251.8" width="601.58" height="128.84"/>
  <rect class="cls-5" x="3043.76" y="1260.85" width="761.41" height="119.79"/>
  <path class="cls-3" d="M3019.84,1856.42s2-49.27,7.5-52.65,197.5-24.84,204-23.71,3.93,61.34,3.93,61.34l13.57,1.31-.74-13.41h199.5V1780h142.74s14-1.09,13.5,6.25,0,61.52,0,61.52l165,1.89v28.79l-218.26-2.32V1829.3h-52V1875l-270.76-5.8-.49,0V1829.3h-31v34.54l-111.69-4.24v-5.95h5.63V1825.4h-19.75v28.25h5.62v4.91Z"/>
  <polygon class="cls-4" points="3070.54 1825.4 3090.29 1825.4 3090.29 1853.65 3084.66 1853.65 3084.66 1867.55 3076.16 1867.55 3076.16 1853.65 3070.54 1853.65 3070.54 1825.4"/>
  <path class="cls-2" d="M3088.87,1826.82H3072v25.41h4.21a1.43,1.43,0,0,1,1.42,1.42v12.48h5.67v-12.48a1.42,1.42,0,0,1,1.41-1.42h4.21Zm-18.33-2.84h19.75a1.42,1.42,0,0,1,1.41,1.42v28.25a1.42,1.42,0,0,1-1.41,1.42h-4.21v12.48a1.42,1.42,0,0,1-1.42,1.42h-8.5a1.43,1.43,0,0,1-1.42-1.42v-12.48h-4.2a1.42,1.42,0,0,1-1.42-1.42V1825.4A1.42,1.42,0,0,1,3070.54,1824Z"/>
  <polygon class="cls-4" points="3167.85 1883.36 3196.35 1883.36 3196.35 1829.3 3227.35 1829.3 3227.35 1898.33 3196.35 1898.33 3196.35 1891.86 3167.85 1891.86 3167.85 1883.36"/>
  <path class="cls-2" d="M3196.35,1884.77h-27.09v5.67h27.09a1.43,1.43,0,0,1,1.42,1.42v5.05h28.16v-66.19h-28.16v52.64a1.42,1.42,0,0,1-1.42,1.41m-28.5-2.83h27.08V1829.3a1.43,1.43,0,0,1,1.42-1.42h31a1.43,1.43,0,0,1,1.42,1.42v69a1.42,1.42,0,0,1-1.42,1.41h-31a1.42,1.42,0,0,1-1.42-1.41v-5h-27.08a1.42,1.42,0,0,1-1.42-1.42v-8.5A1.41,1.41,0,0,1,3167.85,1881.94Z"/>
  <path class="cls-2" d="M3446.18,1781.38H3249.51v46.5h196.67Zm-198.08-2.84h199.5A1.42,1.42,0,0,1,3449,1780v49.34a1.42,1.42,0,0,1-1.41,1.42H3248.1a1.42,1.42,0,0,1-1.42-1.42V1780A1.42,1.42,0,0,1,3248.1,1778.54Z"/>
  <path class="cls-2" d="M3549.18,1830.72H3500v41.66h21.16a1.42,1.42,0,0,1,1.42,1.42v52.42h4V1873.8a1.41,1.41,0,0,1,1.41-1.42h21.16Zm-50.58-2.84h52a1.42,1.42,0,0,1,1.41,1.42v44.5a1.41,1.41,0,0,1-1.41,1.41h-21.16v52.43a1.42,1.42,0,0,1-1.42,1.42h-6.85a1.43,1.43,0,0,1-1.42-1.42v-52.43H3498.6a1.41,1.41,0,0,1-1.42-1.41v-44.5A1.42,1.42,0,0,1,3498.6,1827.88Z"/>
  <rect class="cls-5" x="2964.99" y="805.74" width="847.93" height="11.35"/>
  <path class="cls-2" d="M2963.58,797.34h-47.17v27.23h15a1.43,1.43,0,0,1,1.42,1.42V842.7h14.34V826a1.43,1.43,0,0,1,1.42-1.42h15ZM2915,794.51h50a1.41,1.41,0,0,1,1.42,1.41V826a1.42,1.42,0,0,1-1.42,1.42h-15v16.7a1.42,1.42,0,0,1-1.42,1.42H2931.4a1.42,1.42,0,0,1-1.42-1.42v-16.7h-15a1.43,1.43,0,0,1-1.42-1.42V795.92A1.42,1.42,0,0,1,2915,794.51Z"/>
  <path class="cls-2" d="M3333.84,975.89a1.41,1.41,0,1,1-2.76.6c0-.1-8.08-37.28-27.6-58.17a202.62,202.62,0,0,0-18.66-17.66c-6.69-5.69-10.78-9.18-15.22-18.12-3.83-7.75-11.27-31-17.79-54.25-6.11-21.81-11.43-43.71-12.25-53a1.41,1.41,0,0,1,2.81-.24c.81,9.1,6.09,30.81,12.17,52.5,6.48,23.13,13.84,46.16,17.6,53.75,4.18,8.44,8.1,11.78,14.51,17.23a205.4,205.4,0,0,1,18.9,17.89c20,21.44,28.27,59.38,28.29,59.49"/>
  <path class="cls-2" d="M3121.61,909.8a1.41,1.41,0,1,1,0-2.82c.45,0,155.13,1.42,199.71-118.39a1.41,1.41,0,0,1,2.65,1C3278.7,911.25,3122.06,909.8,3121.61,909.8"/>
  <path class="cls-2" d="M3347.06,788.67a1.41,1.41,0,0,1,2.7.83c-.36,1.17-.76,5.32-1.33,11.3-.85,8.8-2.07,21.51-4.2,35-1.86,11.7-5.48,23.63-9,35.1-3,9.75-5.82,19.17-7.37,27.75-7,38.55,9.45,94.19,23.29,141.08,4.91,16.64,9.5,32.18,12.61,45.48a1.42,1.42,0,1,1-2.76.64c-3.1-13.27-7.67-28.75-12.56-45.32-13.93-47.18-30.45-103.17-23.36-142.38,1.58-8.74,4.46-18.24,7.45-28.07,3.45-11.37,7-23.2,8.87-34.72,2.12-13.42,3.33-26.08,4.18-34.84.59-6.16,1-10.42,1.44-11.86"/>
  <path class="cls-2" d="M890.82,326a1.41,1.41,0,0,1,0-2.82l604.7,7.48V77.1a1.42,1.42,0,1,1,2.83,0v255h0v0a1.39,1.39,0,0,1-1.42,1.39Z"/>
  <path class="cls-2" d="M126.87,1159.87a1.41,1.41,0,0,1,2.82,0l.17,13.62,416-.76c16.57-3.3,91.19.41,164.73,6.2,73.75,5.8,146.56,13.75,158.91,18.87l30.58-48.06V394h-9.27a1.43,1.43,0,0,1-1.42-1.42v-91h-38.7a1.42,1.42,0,0,1,0-2.84h40.12a1.43,1.43,0,0,1,1.42,1.42v91h9.27A1.43,1.43,0,0,1,903,392.6v757.5h0a1.42,1.42,0,0,1-.22.76l-31.47,49.44a.42.42,0,0,1-.09.14,1.4,1.4,0,0,1-2,.29c-6.38-4.74-82-13-158.79-19-73.55-5.79-148.08-9.52-164.09-6.23a1.33,1.33,0,0,1-.28,0l-416.14.76.55,45.06-2.82,0Z"/>
  <path class="cls-2" d="M2410.09,1099.07h-9.59v323.56h9.59Zm-11-2.84h12.43a1.43,1.43,0,0,1,1.42,1.42v326.4a1.43,1.43,0,0,1-1.42,1.42h-12.43a1.42,1.42,0,0,1-1.41-1.42v-326.4A1.42,1.42,0,0,1,2399.08,1096.23Z"/>
  <path class="cls-2" d="M3042.34,1242.48H3014.5v159.75h27.84Zm-29.26-2.83h30.68a1.42,1.42,0,0,1,1.42,1.41v162.59a1.43,1.43,0,0,1-1.42,1.42h-30.68a1.42,1.42,0,0,1-1.41-1.42V1241.06A1.41,1.41,0,0,1,3013.08,1239.65Z"/>
  <path class="cls-2" d="M2335.24,1099.07h-9.59V1488.9h9.59Zm-11-2.84h12.43a1.42,1.42,0,0,1,1.41,1.42v392.66a1.41,1.41,0,0,1-1.41,1.42h-12.43a1.41,1.41,0,0,1-1.41-1.42V1097.65A1.42,1.42,0,0,1,2324.23,1096.23Z"/>
  <path class="cls-6" d="M3318.74,2427.91h566.05a7.38,7.38,0,0,1,7.36,7.36v54.31a7.38,7.38,0,0,1-7.36,7.36H3318.74a7.38,7.38,0,0,1-7.36-7.36v-54.31a7.38,7.38,0,0,1,7.36-7.36"/>
  <path class="cls-1" d="M3752.89,2479.54H3733.5v-34.27h19.39V2450h-13.78v9.31H3752v4.7h-12.91v10.76h13.78Zm-46.43-4.8h12.32v-29.47h5.68v34.27h-41.6v-34.27h5.6v29.47h12.32v-29.47h5.68Zm-48.72.09h4.7a10.62,10.62,0,0,0,5.8-1.32,4.73,4.73,0,0,0,2-4.28,4.5,4.5,0,0,0-1.94-4.05c-1.3-.86-3.46-1.29-6.51-1.29h-4.07Zm18.27-5.61q0,5-3.39,7.68t-9.8,2.64h-10.69v-34.27h5.61v13.92h4.84q6.52,0,10,2.59A8.73,8.73,0,0,1,3676,2469.22Zm-32.93,10.32h-5.61v-29.47h-9.74c-1.23,10-2.23,16.8-3,20.41s-1.79,6.12-3.13,7.54a6.85,6.85,0,0,1-5.34,2.05,9.16,9.16,0,0,1-3.27-.59v-4.65a6.5,6.5,0,0,0,2.61.58,2.91,2.91,0,0,0,2.63-2q.95-2,2.09-9t2.7-19.15h20Zm-59.22-17.19c0,4.22.84,7.42,2.55,9.6s4.22,3.27,7.57,3.27,5.84-1.08,7.53-3.23,2.54-5.37,2.54-9.64-.84-7.38-2.52-9.56-4.18-3.25-7.51-3.25-5.89,1.09-7.6,3.25S3583.86,2458.15,3583.86,2462.35Zm26.15,0c0,5.59-1.4,9.92-4.19,13s-6.74,4.64-11.84,4.64-9.15-1.54-11.92-4.61-4.16-7.43-4.16-13.09,1.4-10,4.18-13,6.77-4.54,11.94-4.54,9,1.53,11.81,4.61S3610,2456.77,3610,2462.36Zm-54.82,12.47h4c2.68,0,4.66-.44,5.91-1.32a4.87,4.87,0,0,0,1.87-4.28,4.51,4.51,0,0,0-1.89-4.08c-1.25-.84-3.45-1.26-6.57-1.26h-3.35Zm17.58-5.61q0,10.32-13.22,10.32h-10v-34.27h20.92v4.8h-15.31v9.12h4.07Q3572.76,2459.19,3572.77,2469.22Zm-59-26.69c-3.31,0-5.73-.6-7.28-1.79s-2.39-3.19-2.56-6h5a6.77,6.77,0,0,0,.65,2.63,2.91,2.91,0,0,0,1.45,1.34,7.73,7.73,0,0,0,2.89.41,5.26,5.26,0,0,0,3.5-1,4.93,4.93,0,0,0,1.44-3.36H3524a7.81,7.81,0,0,1-2.84,5.91Q3518.64,2442.54,3513.78,2442.53Zm-14.68,2.74h5.13v17.81c0,1.86-.05,3.74-.14,5.64s-.16,3.19-.21,3.86h.21l17.51-27.31h6.54v34.27H3523v-17.67c0-2.71.15-6,.44-9.85h-.18l-17.58,27.52h-6.56Zm-15.38,19.92-3.21-9.33c-.24-.63-.56-1.61-1-3s-.7-2.33-.86-3a53.25,53.25,0,0,1-1.85,6.31l-3.09,8.93Zm4.9,14.35-3.43-9.51H3472.1l-3.36,9.51h-5.9l12.82-34.42h6.09l12.82,34.42Zm-30.28,0h-5.63v-15.46h-15.79v15.46h-5.61v-34.27h5.61v14h15.79v-14h5.63Zm-34.76-26.25a7.31,7.31,0,0,1-2.2,5.49,11,11,0,0,1-6.14,2.72v.13a12.17,12.17,0,0,1,6.86,2.67,7.1,7.1,0,0,1,2.36,5.54,8.72,8.72,0,0,1-3.74,7.48c-2.5,1.8-5.93,2.7-10.33,2.7q-6.84,0-10.95-1.86v-4.9a22.44,22.44,0,0,0,5.1,1.66,25.77,25.77,0,0,0,5.17.59q9,0,9-5.91a4.49,4.49,0,0,0-2.71-4.14q-2.7-1.42-8-1.43h-4.13v-4.51h3.87q10.25,0,10.25-5.46a4.05,4.05,0,0,0-1.75-3.45,8.24,8.24,0,0,0-4.89-1.26,16.68,16.68,0,0,0-4.73.65,17.64,17.64,0,0,0-4.67,2.23l-2.56-3.8a21.32,21.32,0,0,1,12.43-3.64c3.63,0,6.49.77,8.6,2.32A7.24,7.24,0,0,1,3423.58,2453.29Zm-26.26-8-10.8,24.38a29.34,29.34,0,0,1-3.65,6.49,10.32,10.32,0,0,1-3.86,2.94,13.33,13.33,0,0,1-5.3.94,16.92,16.92,0,0,1-5-.71v-5a12.84,12.84,0,0,0,4.8.91,5.89,5.89,0,0,0,3.57-1,9,9,0,0,0,2.62-3.75L3367,2445.27h6l8.36,17.19a33,33,0,0,1,1.39,3.25h.23a15.54,15.54,0,0,1,.7-1.94l7.72-18.5Z"/>
  <path class="cls-7" d="M3813.64,2439.57a22.86,22.86,0,1,1-22.86,22.86,22.85,22.85,0,0,1,22.86-22.86"/>
  <path class="cls-1" d="M3835.08,2462.43a21.44,21.44,0,1,0-6.28,15.16,21.44,21.44,0,0,0,6.28-15.16m-21.44-24.28a24.27,24.27,0,1,1-24.28,24.28A24.28,24.28,0,0,1,3813.64,2438.15Z"/>
  <polygon class="cls-6" points="3804.1 2448.15 3816.46 2455.29 3828.82 2462.43 3816.46 2469.56 3804.1 2476.7 3804.1 2462.43 3804.1 2448.15"/>
</svg>
